<svg width="28" height="20" viewBox="0 0 28 20" fill="none" xmlns="http://www.w3.org/2000/svg">
<rect width="28" height="20" fill="#F8E9E9"/>
<g clip-path="url(#clip0_8213_1646)">
<path d="M0 0H28V20H0V0Z" fill="#000066"/>
<path d="M0 10L28 0V20L0 10Z" fill="#BD1021"/>
<path d="M2.99991 9.99999L28 1.07159V18.9284" fill="white"/>
<path d="M21.4612 11.1171C21.6478 11.1375 21.6414 11.4019 21.6414 11.4019L22.3023 11.4229C22.3868 11.0937 22.4745 11.1319 22.6351 11.2944C22.7876 11.4489 22.9541 11.5178 22.9541 11.5178C23.0179 11.0454 23.4868 11.1409 23.4868 11.1409C23.6867 10.4588 23.7037 10.4679 23.5846 10.3815C23.4656 10.2951 23.417 10.1489 23.417 10.1489C23.3039 9.95399 23.2444 9.67203 23.2316 9.49907C23.2188 9.32611 23.0785 9.58563 23.053 9.53103C23.0275 9.47647 22.819 9.50831 22.819 9.50831C22.8701 9.58563 22.6957 9.54015 22.6957 9.54015C22.7127 9.55835 22.6957 9.63111 22.6957 9.63111C22.6787 9.59927 22.5468 9.56743 22.5468 9.56743C22.5341 9.60835 22.5043 9.65383 22.5043 9.65383C22.432 9.60835 22.2874 9.61743 22.2874 9.61743C22.0747 9.61287 21.9471 9.70839 21.8876 9.75843C21.828 9.80847 21.6153 9.96307 21.441 10.2041C21.2666 10.4451 21.1687 10.4179 21.1687 10.4179C21.1177 10.6862 20.7009 11.0136 20.7009 11.0136C20.6329 11.1 20.4244 11.1409 20.3181 11.0136C20.2118 10.8863 20.3181 10.6589 20.3181 10.6589C20.3574 10.5526 20.3964 10.557 20.4008 10.1881C20.4037 9.93867 20.584 9.74083 20.769 9.45091C20.9951 9.09647 21.3113 8.51295 21.3113 8.51295C21.3129 8.69203 21.3814 8.72103 21.3814 8.72103C21.4436 8.53855 21.533 8.39187 21.533 8.39187C21.5378 8.40723 21.5505 8.41747 21.5505 8.41747C21.6207 8.28103 21.6638 8.22647 21.6638 8.22647C21.6398 8.21283 21.4436 8.22647 21.2602 8.45499C21.0768 8.68351 20.9508 8.60679 20.9508 8.60679C20.8232 8.54879 20.812 8.40895 20.812 8.40895C20.7189 7.83627 21.0848 7.42663 21.0848 7.42663C20.5935 7.25951 20.9476 6.36927 21.5569 5.99067C22.1662 5.61207 22.1598 5.44151 22.1598 5.44151C22.1949 5.49951 22.2236 5.60183 22.2236 5.60183C22.23 5.59499 22.2746 5.49951 22.6255 5.27779C22.9764 5.05607 23.1455 4.86507 23.1455 4.86507C23.1901 4.98787 23.1806 5.07655 23.1806 5.07655C24.1407 4.59563 25.0866 3.49223 25.0866 3.49223C25.1137 3.58431 25.0994 3.72415 25.0994 3.72415C25.2557 3.51779 25.8203 3.03687 25.8203 3.03687C25.8299 3.34383 25.6528 3.46151 25.6528 3.46151C25.672 3.50587 25.6831 3.58599 25.6831 3.58599C25.7756 3.51435 26.2063 3.08459 26.2063 3.08459C26.3642 3.27899 26.2206 3.59791 26.2206 3.59791C26.2765 3.58599 26.3179 3.51607 26.3179 3.51607C26.3578 3.84691 26.101 4.13855 26.101 4.13855C26.1457 4.14027 26.2206 4.07715 26.2206 4.07715C26.1728 4.43871 25.6927 4.83947 25.6927 4.83947C25.7629 4.92815 25.6959 5.04583 25.6385 5.09871C25.581 5.15159 25.479 5.26755 25.5109 5.31531C25.5428 5.36307 25.7549 5.14987 25.7549 5.14987C25.7916 5.30167 25.5189 5.60011 25.5189 5.60011C25.7087 5.63591 26.2366 5.29315 26.2366 5.29315C26.1935 5.58479 25.9942 5.81159 25.7485 5.94291C25.5029 6.07423 25.5157 6.09471 25.5157 6.09471C25.5587 6.14415 25.8984 6.00263 25.8984 6.00263C25.7964 6.32835 25.4423 6.55179 25.4423 6.55179C25.5396 6.66947 25.672 6.53303 25.8043 6.40343C25.9367 6.27383 26.117 6.16295 26.3163 6.06747C26.5157 5.97195 26.656 6.04359 26.656 6.04359C26.8219 5.96855 26.9623 6.07427 26.9623 6.07427C27.2813 6.11179 27.3132 6.27723 27.3132 6.27723C27.3483 6.28915 27.3754 6.30963 27.4567 6.39491C27.5381 6.48019 27.5333 6.74451 27.5301 6.87415C27.5269 7.00375 27.5014 7.00375 27.4854 7.03959C27.4695 7.07543 27.4679 7.11635 27.4679 7.16579C27.4679 7.21523 27.3881 7.52223 26.8953 7.52563C26.4024 7.52903 26.1483 7.52563 26.1483 7.52563C26.1076 7.52563 26.059 7.55975 26.059 7.55975C25.8516 7.70643 25.9611 7.45971 25.7145 7.74963C25.4678 8.03955 25.3423 7.98951 25.3423 7.98951C25.3019 8.05887 25.0435 8.40223 24.8957 8.53867C24.7479 8.67511 24.7745 8.66259 24.9031 8.74219C25.0318 8.82179 25.2264 8.74219 25.2264 8.74219C25.102 8.86043 25.1881 8.91499 25.1881 8.91499C25.3519 8.77287 25.4508 8.82519 25.4508 8.82519C25.5029 9.02871 25.3157 9.35047 25.3157 9.35047C25.388 9.36411 25.5241 9.35047 25.5241 9.35047C25.4912 9.48803 25.3551 9.63927 25.2551 9.68587C25.1551 9.73247 25.1732 9.75067 25.203 9.83707C25.2327 9.92347 25.2072 10.011 25.2072 10.011C25.0329 9.83823 25.0265 9.99283 25.0265 9.99283C25.0063 10.1976 25.0094 10.4908 25.0094 10.4908C24.8861 10.4021 24.8797 10.5204 24.8797 10.5204C24.8478 10.7068 24.6968 10.9229 24.6968 10.9229C24.6904 10.8069 24.616 10.7773 24.616 10.7773C24.5373 10.9933 24.3927 11.123 24.3927 11.123C24.3736 11.3094 24.4097 11.5709 24.4097 11.5709C24.3162 11.5437 24.2821 11.5459 24.2673 11.5778C24.2524 11.6096 24.2885 11.6255 24.2885 11.6255L25.5071 11.6687C25.5241 11.671 25.5964 11.6824 25.5986 11.8711C25.6007 12.0598 25.4922 12.0689 25.4922 12.0689L24.1588 12.0235C24.1588 12.0235 24.1652 12.0757 24.095 12.1281C24.0248 12.1804 24.0482 12.0689 24.0291 12.3031C24.0099 12.5373 23.7441 12.2849 23.7441 12.2849C23.7015 12.3759 23.5973 12.4941 23.5973 12.4941C23.5378 12.2372 23.4761 12.1576 23.3804 12.3805C23.2847 12.6033 23.5527 12.5647 23.5527 12.5647C23.5527 12.5647 25.1179 12.2349 25.203 12.2236C25.288 12.2122 25.3816 12.219 25.4199 12.3896C25.4581 12.5601 25.2306 12.5874 25.2306 12.5874L23.625 12.8375C23.5909 12.974 23.457 12.9626 23.457 12.9626C23.4676 13.0922 23.3719 13.1741 23.323 13.2219C23.2741 13.2696 23.121 13.2469 23.121 13.2469C22.9338 13.4288 22.8424 13.2855 22.8424 13.2855C22.7211 13.3605 22.6446 13.3287 22.5446 13.2673C22.4447 13.2059 22.4532 13.0331 22.4532 13.0331L21.4398 13.1832C21.392 13.2071 21.359 13.2525 21.359 13.2525C21.3952 13.3185 21.2865 13.4717 21.2865 13.4717C21.3168 13.5015 21.375 13.5851 21.3829 13.7659C21.3914 13.9571 21.2195 13.9893 21.3056 14.1223C21.3917 14.2554 21.5488 14.1454 21.7243 14.0251C21.8997 13.9049 22.072 13.9203 22.1469 13.9211C22.2219 13.9219 22.4308 13.997 22.5608 14.0627C22.6908 14.1283 22.7355 14.0891 22.7442 13.9936C22.753 13.8981 22.8113 13.8708 22.8113 13.8708C22.7953 13.9646 22.8304 14.0064 22.8304 14.0064C22.8806 14.0115 22.9684 13.9416 22.9684 13.9416C22.9604 14.0107 22.8966 14.0541 22.8966 14.0541C22.769 14.1761 22.9444 14.1309 22.9444 14.1309C23.2937 14.0286 23.4182 14.0388 23.5091 14.0525C23.6 14.0661 24.029 14.327 24.029 14.327C24.045 14.2656 24.0338 14.1139 24.0338 14.1139C24.1439 14.1565 24.1885 14.2469 24.1885 14.2469C24.23 14.1821 24.2029 14.0729 24.2029 14.0729C24.557 14.356 24.1295 14.4839 24.0163 14.5385C23.9031 14.5931 23.9047 14.6596 23.9047 14.6596C23.9988 14.6169 24.0641 14.6016 24.1423 14.5931C24.2205 14.5845 24.1934 14.5913 24.38 14.5385C24.5666 14.4856 24.6623 14.5982 24.6623 14.5982C24.506 14.6101 24.4598 14.6766 24.4598 14.6766C24.5586 14.7738 24.4645 14.8557 24.4645 14.8557C24.3226 14.5999 24.2014 14.8659 24.2014 14.8659C24.25 14.8557 24.3928 14.8983 24.4334 14.935C24.4649 14.9634 24.5387 15.0152 24.6304 15.0757C24.7599 15.1612 24.7357 15.1064 24.8362 15.161C24.9366 15.2156 24.8984 15.3537 24.8984 15.3537C24.8553 15.2411 24.7628 15.2019 24.7628 15.2019C24.7548 15.3537 24.648 15.3793 24.648 15.3793C24.7788 15.1712 24.4964 15.0808 24.364 15.0842C24.2317 15.0876 24.1328 15.2087 24.1328 15.2087C24.3991 15.5651 24.5842 15.4492 24.5842 15.4492C24.5507 15.5788 24.3306 15.5276 24.3306 15.5276C24.4326 15.6385 24.4215 15.7169 24.4215 15.7169C24.3672 15.6419 24.2779 15.6794 24.0865 15.5021C23.8952 15.3247 23.7245 15.3827 23.7245 15.3827C23.9111 15.6675 23.6559 15.8363 23.6559 15.8363C23.5618 15.9131 23.6958 16.0171 23.6958 16.0171C23.5778 16.0478 23.5618 15.879 23.5618 15.879C23.4996 15.8619 23.4103 15.9694 23.4103 15.9694C23.4166 15.7954 23.5761 15.8824 23.5809 15.7016C23.5857 15.5208 23.4326 15.381 22.9812 15.4697C22.5298 15.5584 22.3974 15.352 22.3974 15.352C22.3591 15.3537 22.3512 15.4083 22.3512 15.4083C22.4261 15.5106 22.4596 15.5533 22.4469 15.6249C22.4341 15.6965 22.4708 15.7204 22.4708 15.7204C22.3878 15.7136 22.3815 15.5721 22.3815 15.5721C22.3799 15.6301 22.3623 15.6352 22.3352 15.6965C22.3081 15.7579 22.3336 15.8364 22.3336 15.8364C22.2985 15.792 22.2347 15.7392 22.2953 15.613C22.342 15.5158 22.198 15.3913 22.198 15.3913C22.1422 15.3094 21.9939 15.3861 21.9939 15.3861C21.686 15.4731 21.5058 15.1951 21.5058 15.1951C21.4707 15.1951 21.4037 15.1679 21.4037 15.1679C21.0783 15.3759 20.7928 14.9257 20.7928 14.9257C20.5472 14.9922 20.4356 14.8234 20.3606 14.6579C20.2857 14.4925 20.2713 14.4789 20.1724 14.3936C20.0735 14.3083 19.9811 14.0671 20.0719 13.94C20.1511 13.8291 20.1277 13.8035 20.1277 13.8035C20.0001 13.4971 20.3553 13.3983 20.3617 13.325C20.371 13.218 20.4451 13.1504 20.5249 13.1435C20.6046 13.1367 20.6046 13.1469 20.6573 13.0702C20.7099 12.9935 20.8104 13.089 20.8104 13.089C20.8311 13.0668 21.0066 12.8724 21.1629 12.973C21.3192 13.0737 21.4484 13.002 21.4484 13.002C21.5585 12.9679 22.4724 12.7905 22.4724 12.7905C22.5314 12.6643 22.5729 12.5125 22.8249 12.4307C23.0769 12.3489 23.2683 12.1254 23.2683 12.1254C23.2236 12.0572 23.1487 12.0606 23.1104 12.0538C23.0721 12.0469 22.9924 11.9497 22.9924 11.9497C22.9461 11.9787 22.9224 11.9645 22.592 12.2516C22.297 12.508 22.2885 11.9992 22.2885 11.9992L21.6446 12.0009C21.6335 12.1953 21.5298 12.2721 21.5298 12.2721L21.2953 12.2891C21.1645 12.1902 21.1629 11.8611 21.1629 11.8611C20.4548 11.8764 20.0608 12.2379 20.0608 12.2379C19.2585 11.6513 18.6301 11.5183 18.6301 11.5183C19.6046 11.3665 20.1198 10.9793 20.1198 10.9793C20.6573 11.4398 21.1629 11.4517 21.1629 11.4517C21.1821 11.1737 21.3129 11.1055 21.3129 11.1055L21.4612 11.1171Z" fill="black"/>
<path d="M20.3025 13.4272C20.0989 13.5978 20.1357 13.691 20.1534 13.7434C20.1715 13.7968 20.1736 13.848 20.1183 13.9276C20.063 14.0072 20.0683 14.0348 20.0683 14.0348C20.0769 14.3176 20.2171 14.3776 20.2755 14.447C20.3245 14.5051 20.4075 14.6871 20.4075 14.6871C20.5118 14.9008 20.6223 14.9031 20.7042 14.9031C20.7861 14.9031 20.7788 14.8932 20.7372 14.8406C20.698 14.7911 20.6159 14.695 20.6159 14.695C20.7254 14.7496 20.8297 14.9133 20.8297 14.9133C21.0366 15.2368 21.2273 15.1942 21.3113 15.1782C21.3953 15.1623 21.3805 15.093 21.3805 15.093C21.376 15.0814 21.2943 15.0725 21.2943 15.0725C20.9838 15.0304 20.8903 14.7394 20.8903 14.7394C21.0774 15.002 21.3709 15.0554 21.4613 15.0506C21.5516 15.0458 21.5463 15.0827 21.5272 15.0896C21.508 15.0964 21.4804 15.0896 21.4389 15.085C21.3975 15.0804 21.3974 15.0952 21.407 15.1202C21.4166 15.1452 21.4557 15.1478 21.5051 15.1452C21.5546 15.1427 21.5147 15.1504 21.6431 15.2928C21.7715 15.4352 22.0913 15.32 22.0913 15.32C21.8847 15.2467 21.856 15.1137 21.856 15.1137C21.5753 15.1606 21.4612 14.9201 21.4612 14.9201C21.411 14.8485 21.261 14.7377 21.261 14.7377C21.1024 14.6404 21.0776 14.4353 21.0776 14.4353C21.1223 14.5261 21.2092 14.6302 21.3193 14.6737C21.4293 14.7172 21.4604 14.7402 21.4604 14.7402C21.4078 14.7513 21.3767 14.7266 21.3767 14.7266C21.2666 14.6805 21.3288 14.7445 21.3288 14.7445C21.45 14.8826 21.4835 14.8724 21.4835 14.8724C21.8017 14.9193 21.6438 14.7377 21.6438 14.7377C21.8703 14.8144 21.9078 14.6933 21.9078 14.6933C21.9549 14.8357 22.1263 14.7846 22.1263 14.7846C21.8983 14.9414 22.0713 14.8966 22.0713 14.8966C22.3018 14.8349 22.347 14.9187 22.347 14.9187C22.4094 15.0016 22.4725 14.9901 22.4725 14.9901C22.4725 14.9901 22.5139 14.9918 22.6016 15.0169C22.6894 15.042 22.8233 15.1487 22.9509 15.1261C23.0785 15.1036 23.0993 15.1608 23.0993 15.1608C23.0754 15.149 23.0195 15.1368 22.9206 15.1999C22.8218 15.263 22.6511 15.2834 22.4023 15.1999C22.1535 15.1163 22.1343 15.1266 22.1343 15.1266C22.1934 15.1896 22.246 15.2784 22.2571 15.3397C22.2683 15.4011 22.3114 15.4045 22.3114 15.4045C22.3289 15.3261 22.4039 15.292 22.4039 15.292C22.453 15.3568 22.5841 15.442 22.5841 15.442C22.5985 15.3994 22.5841 15.3696 22.5841 15.3696C22.6798 15.5 22.7915 15.4608 22.7915 15.4608C22.8217 15.4302 22.8122 15.3568 22.8122 15.3568C22.8505 15.355 22.8569 15.3892 22.884 15.4148C22.9111 15.4404 22.9972 15.4233 22.9972 15.4233C22.9653 15.4045 22.943 15.3346 22.943 15.3346C23.069 15.2101 23.3417 15.2647 23.3417 15.2647C23.5387 15.3141 23.514 15.4983 23.514 15.4983C23.5538 15.5256 23.6065 15.6109 23.6065 15.6109C23.6232 15.5461 23.6081 15.4804 23.6081 15.4804C23.6982 15.5418 23.7173 15.6919 23.7173 15.6919C23.8218 15.5213 23.6177 15.3295 23.6177 15.3295C23.7165 15.3116 23.8258 15.3244 23.892 15.338C23.9582 15.3516 24.0531 15.4011 24.1304 15.4932C24.2078 15.5853 24.3466 15.6279 24.3466 15.6279C24.3423 15.5899 24.2684 15.5256 24.2517 15.512C24.2349 15.4983 24.2278 15.4651 24.2278 15.4651C24.2956 15.4821 24.3426 15.4736 24.3426 15.4736C24.1042 15.2655 24.0443 15.1666 24.0443 15.1666C24.1337 15.1828 24.1831 15.1035 24.1831 15.1035C23.9949 15.1095 23.9885 15.0396 23.9885 15.0396C24.0116 15.0489 24.097 15.0788 24.2094 15.0472C24.3219 15.0157 24.4782 15.0481 24.4782 15.0481C24.3968 14.8613 24.0818 14.8929 23.9813 14.9006C23.8809 14.9082 23.8418 14.8895 23.8418 14.8895C23.8578 14.8784 23.8745 14.8545 23.9534 14.8537C24.0324 14.8528 24.1097 14.8622 24.199 14.7744C24.2884 14.6865 24.4109 14.7155 24.4109 14.7155C24.3812 14.6314 24.2397 14.6018 24.1153 14.7155C23.9909 14.8292 23.8782 14.7928 23.8782 14.7928C24.0749 14.753 24.1323 14.6541 24.1323 14.6541C24.0728 14.6336 24.0398 14.661 23.9218 14.6939C23.8038 14.7269 23.7718 14.6689 23.7718 14.6689C23.9016 14.5586 23.992 14.5143 23.992 14.5143C23.8814 14.4813 23.7793 14.4139 23.7793 14.4139C23.6645 14.5682 23.5751 14.6552 23.355 14.4904C23.1349 14.3256 23.0201 14.3449 23.0201 14.3449C23.2136 14.1812 23.4125 14.2516 23.5571 14.3756C23.7017 14.4995 23.7432 14.3983 23.7432 14.3983C23.6975 14.3574 23.7038 14.3221 23.7038 14.3221C24.0547 14.5779 24.2068 14.4188 24.2844 14.3437C24.362 14.2687 24.2493 14.1686 24.2493 14.1686C24.2419 14.3312 24.0983 14.4051 23.9856 14.3506C23.8729 14.296 23.7687 14.2266 23.6066 14.13C23.4444 14.0334 23.2413 14.0834 23.052 14.1402C22.8627 14.1971 22.8383 14.1698 22.8213 14.1482C22.8043 14.1266 22.7947 14.0606 22.6979 14.1175C22.6012 14.1744 22.3757 14.0232 22.2354 13.9754C22.095 13.9276 21.8652 13.9538 21.6665 14.1096C21.4678 14.2654 21.3698 14.2267 21.3103 14.188C21.2507 14.1493 21.2135 14.0425 21.2773 13.947C21.3411 13.8514 21.3464 13.8253 21.3411 13.6877C21.3358 13.5502 21.2412 13.4683 21.2412 13.4683C21.3284 13.3398 21.3497 13.3114 21.3199 13.2557C21.2901 13.2 21.3369 13.2011 21.3869 13.1693C21.4368 13.1374 21.4145 13.1329 21.4028 13.0908C21.3911 13.0488 21.3624 13.0556 21.3624 13.0556C21.2465 13.0624 21.1827 13.017 21.1827 13.017C20.9908 12.8908 20.8127 13.1363 20.8127 13.1363C20.7036 13.017 20.6787 13.0942 20.6595 13.1238C20.6404 13.1534 20.6021 13.1738 20.5511 13.1806C20.5046 13.1868 20.4345 13.2128 20.4101 13.2748C20.4101 13.2748 20.3886 13.3246 20.4155 13.3791C20.4155 13.3791 20.4453 13.4433 20.391 13.5208C20.3368 13.5984 20.3177 13.6172 20.3344 13.6905C20.3512 13.7638 20.3464 13.8201 20.3257 13.8679C20.3257 13.8679 20.3009 13.827 20.3073 13.7766C20.3137 13.7263 20.3137 13.6973 20.3057 13.67C20.3057 13.67 20.2523 13.7451 20.2427 13.7988C20.2427 13.7988 20.2204 13.7161 20.2977 13.6052C20.3751 13.4944 20.4103 13.4392 20.3887 13.3963C20.3727 13.3648 20.3161 13.4158 20.3025 13.4272Z" fill="#FFC221"/>
<path d="M20.5223 14.6496C20.5223 14.6496 20.4255 14.5439 20.4372 14.3972C20.4489 14.2505 20.447 14.2324 20.4363 14.2016C20.4363 14.2016 20.4186 14.2162 20.4192 14.2733C20.4197 14.3268 20.4143 14.3824 20.4106 14.3926C20.4106 14.3926 20.3607 14.271 20.3405 14.2482C20.3405 14.2482 20.3575 14.1209 20.3298 14.0663C20.3022 14.0118 20.2754 14.0083 20.2437 14.0254C20.1998 14.049 20.1666 14.1073 20.3142 14.2801C20.3142 14.2801 20.3692 14.3426 20.4075 14.4813C20.4458 14.62 20.5096 14.6416 20.5223 14.6496ZM21.0019 14.2437C21.0019 14.2437 20.9944 14.1607 21.0465 14.014C21.0987 13.8674 21.0674 13.7584 21.0557 13.722C21.044 13.6856 21.037 13.6991 21.0895 13.6361C21.1542 13.5585 21.0646 13.4606 21.171 13.3246C21.171 13.3246 21.2411 13.2386 21.2571 13.2034C21.2571 13.2034 21.1444 13.2898 21.071 13.333C20.9976 13.3762 20.7169 13.5729 20.7786 13.7048C20.8403 13.8366 20.8339 13.8435 20.8243 13.898C20.8243 13.898 20.6574 13.7718 20.7158 13.5672C20.7158 13.5672 20.7424 13.4848 20.8126 13.3921C20.8764 13.308 20.8381 13.4103 20.9678 13.3046C20.9678 13.3046 21.071 13.217 21.1252 13.0988C21.1252 13.0988 21.0572 13.1602 21.0327 13.1704C21.0327 13.1704 20.8827 13.209 20.8222 13.3C20.7615 13.391 20.6329 13.549 20.6765 13.7252C20.6765 13.7252 20.5265 13.699 20.4925 13.4762C20.4925 13.4762 20.215 13.9651 20.7977 14.1925C20.7977 14.1926 20.9041 14.2329 21.0019 14.2437Z" fill="black"/>
<path d="M23.565 12.6092C23.7826 12.5622 25.0438 12.2899 25.1584 12.2733C25.2839 12.2551 25.3319 12.2312 25.3732 12.3757C25.42 12.5394 25.2009 12.5417 25.2009 12.5417L23.6973 12.7852C23.6236 12.7973 23.6071 12.7571 23.6071 12.7571C23.5941 12.7228 23.5689 12.6771 23.5516 12.6472C23.5516 12.6472 23.5318 12.6164 23.565 12.6092Z" fill="#FFC221"/>
<path d="M20.4851 13.5864C20.4851 13.5864 20.3224 14.0759 20.962 14.1969C20.962 14.1969 20.9636 14.1424 20.9891 14.0656C21.0146 13.9889 21.0704 13.8337 21.0178 13.7331C20.9651 13.6324 21.0608 13.6853 21.0752 13.554C21.0896 13.4227 21.0656 13.4414 21.1103 13.3561C21.1103 13.3561 20.9093 13.4602 20.8328 13.5864C20.7562 13.7126 20.9364 13.8081 20.8296 13.9462C20.8296 13.9462 20.7402 13.9002 20.6876 13.762C20.6877 13.7621 20.5633 13.7655 20.4851 13.5864Z" fill="#5A3719"/>
<path d="M21.1103 14.1876C21.1103 14.1876 21.2682 14.3829 21.4564 14.3744C21.6446 14.3659 21.7244 14.2942 21.7722 14.1876C21.7722 14.1876 21.8088 14.2702 21.8089 14.3249C21.8089 14.3249 21.9716 14.1322 22.2523 14.2993C22.533 14.4664 22.4469 14.4205 22.5091 14.4324C22.5091 14.4324 22.3898 14.4021 22.1167 14.5807C21.836 14.7644 21.1039 14.7018 21.1103 14.1876Z" fill="black"/>
<path d="M20.8487 13.3238C20.8487 13.3238 20.9197 13.3392 20.9907 13.2249C20.9907 13.2249 20.895 13.2505 20.8487 13.3238ZM20.3124 14.2328C20.3124 14.2328 20.1804 14.0845 20.2649 14.0555C20.2649 14.0555 20.3251 14.0418 20.3124 14.2328Z" fill="#5A3719"/>
<path d="M23.1854 15.1607C23.1854 15.1607 23.2555 14.9815 23.4581 14.9815C23.6607 14.9815 23.6846 15.1145 23.9398 15.1401C23.9398 15.1401 23.6334 15.2635 23.4198 15.1503C23.3082 15.0912 23.2077 15.1404 23.1854 15.1607Z" fill="black"/>
<path d="M21.1805 14.3181C21.1805 14.3181 21.4835 14.5807 21.7531 14.2959C21.7531 14.2959 21.7754 14.3266 21.7945 14.3965C21.7945 14.3965 21.9987 14.1151 22.364 14.4187C22.364 14.4187 22.3191 14.4116 22.147 14.5176C21.9229 14.6558 21.3623 14.7462 21.1805 14.3181Z" fill="#5A3719"/>
<path d="M22.3496 14.5842C22.3496 14.5842 22.6399 14.6322 22.8855 14.6114C23.0364 14.5987 23.1997 14.5592 23.1184 14.6322C23.037 14.7052 23.0769 14.7121 23.4246 14.666C23.7723 14.62 23.4214 14.7598 23.6607 14.8042C23.6607 14.8042 23.0808 15.2271 22.3496 14.5842Z" fill="black"/>
<path d="M23.112 14.3198C23.112 14.3198 23.2827 14.2312 23.4406 14.3369C23.5985 14.4426 23.5746 14.4512 23.6798 14.4665C23.6798 14.4665 23.6065 14.6166 23.4326 14.4955C23.2588 14.3744 23.2127 14.351 23.112 14.3198ZM23.3018 15.0685C23.3018 15.0685 23.4693 14.9492 23.6544 15.0732C23.6775 15.0888 23.728 15.1187 23.7755 15.1333C23.7755 15.1333 23.6337 15.1961 23.4884 15.1316C23.428 15.1048 23.38 15.0839 23.3018 15.0685ZM22.474 14.6404C22.474 14.6404 22.8472 14.6899 23.0498 14.6322C23.0498 14.6322 22.8153 14.7939 23.4039 14.7189C23.4039 14.7189 23.5347 14.6984 23.5187 14.7274C23.5027 14.7564 23.4932 14.7786 23.557 14.8058C23.557 14.8059 23.12 15.0856 22.474 14.6404Z" fill="#5A3719"/>
<path d="M20.6094 14.1876C20.6094 14.1876 20.6126 14.2285 20.6955 14.2814C20.7784 14.3343 20.8231 14.4289 20.8407 14.4801C20.8582 14.5313 20.9005 14.6078 20.9691 14.6322C20.9691 14.6322 20.6765 14.7195 20.5453 14.502C20.5453 14.502 20.4459 14.3454 20.6062 14.1876" fill="black"/>
<path d="M22.9127 15.152C22.9127 15.152 22.7963 15.1418 22.6383 15.0634C22.4804 14.9849 22.4389 15.0514 22.3497 14.9559C22.2603 14.8604 22.0801 14.9201 22.0466 14.9269C22.0131 14.9338 21.9174 14.9269 22.037 14.8161C22.037 14.8161 21.9413 14.8127 21.9047 14.7444C21.9047 14.7444 21.8616 14.8041 21.7005 14.782C21.7005 14.782 21.7723 14.943 21.4836 14.8966C21.4836 14.8966 21.5697 15.0395 21.6734 15.0685C21.7771 15.0975 21.8203 15.0879 21.8871 15.06C21.8871 15.06 21.868 15.1844 22.002 15.2322C22.1359 15.28 22.163 15.3175 22.2316 15.3567C22.2316 15.3567 22.2412 15.2765 22.0626 15.0906C22.0626 15.0906 22.1583 15.0838 22.2954 15.1316C22.4326 15.1793 22.7436 15.2936 22.9127 15.152ZM22.985 15.343C22.985 15.343 23.0137 15.4386 23.1019 15.417C23.1902 15.3954 23.3353 15.3584 23.4757 15.4607C23.4757 15.4607 23.4996 15.2902 23.2178 15.2782C23.2178 15.2782 23.0413 15.2919 22.985 15.343ZM20.5989 14.2482C20.5989 14.2482 20.4904 14.3755 20.5888 14.508C20.6786 14.629 20.8174 14.6182 20.8838 14.6148C20.8838 14.6148 20.844 14.5824 20.8089 14.5074C20.7738 14.4324 20.7726 14.3816 20.6988 14.3334C20.6223 14.2834 20.6132 14.2704 20.5989 14.2482ZM20.4851 13.5865C20.4851 13.5865 20.3224 14.0759 20.962 14.197C20.962 14.197 20.9636 14.1424 20.9891 14.0657C21.0146 13.9889 21.0704 13.8338 21.0178 13.7331C20.9651 13.6325 21.0608 13.6854 21.0752 13.554C21.0896 13.4227 21.0656 13.4415 21.1103 13.3562C21.1103 13.3562 20.9093 13.4602 20.8328 13.5864C20.7562 13.7126 20.9364 13.8082 20.8296 13.9463C20.8296 13.9463 20.7402 13.9002 20.6876 13.7621C20.6877 13.7621 20.5633 13.7656 20.4851 13.5865Z" fill="#5A3719"/>
<path d="M22.1662 14.7156C22.1662 14.7156 22.3002 14.6849 22.6415 14.8674C22.9828 15.0499 23.1248 15.0039 23.1758 14.9987C23.1758 14.9987 22.9833 15.1424 22.6851 14.9549C22.4214 14.789 22.4039 14.8521 22.1662 14.7156Z" fill="black"/>
<path d="M24.3029 14.6063C24.3029 14.6063 24.3808 14.6025 24.4263 14.633C24.4263 14.633 24.456 14.5966 24.5273 14.5858C24.5273 14.5858 24.4805 14.5188 24.3029 14.6063ZM24.0695 14.3363C24.0695 14.3363 24.1477 14.3312 24.1711 14.2778C24.1711 14.2778 24.1318 14.2061 24.0717 14.172C24.0717 14.172 24.0839 14.2482 24.0695 14.3363ZM21.4468 13.0902C21.4468 13.0902 21.4325 13.0356 21.5138 13.0186C21.5952 13.0015 22.6585 12.7849 22.6585 12.7849C22.6585 12.7849 22.7148 12.7848 22.7228 12.8378C22.7315 12.8951 22.7164 12.9379 22.4597 12.9808C22.2029 13.0237 21.525 13.1448 21.525 13.1448C21.525 13.1448 21.4532 13.1618 21.4468 13.0902Z" fill="#FFC221"/>
<path d="M22.4841 13.0248C22.4841 13.0248 22.4841 13.2397 22.6372 13.2716C22.7858 13.3024 22.8369 13.2583 22.8765 13.1466C22.8869 13.1172 22.9325 12.8928 22.8665 12.8757C22.8406 12.869 22.7946 12.8728 22.7617 12.8929C22.7104 12.9242 22.6629 12.9608 22.6798 12.9975C22.7159 13.076 22.723 13.0942 22.7096 13.0998C22.6728 13.1154 22.6458 13.0693 22.6383 13.0373C22.629 12.9975 22.6586 12.9718 22.5586 12.993C22.5177 13.0016 22.4841 12.9998 22.4841 13.0248Z" fill="#FFC221"/>
<path d="M23.121 12.8596C23.1993 12.8725 23.1933 13.109 23.0998 13.2158C22.999 13.3309 22.9028 13.2898 22.9028 13.2898C22.852 13.2591 22.8584 13.2693 22.8977 13.184C22.935 13.1033 22.9525 12.9947 22.9317 12.9191C22.9251 12.895 22.9434 12.8754 22.9694 12.8674C22.9695 12.8674 23.0402 12.8463 23.121 12.8596Z" fill="#FFC221"/>
<path d="M23.1891 12.8805C23.1891 12.8805 23.2449 12.9808 23.1752 13.1658C23.1752 13.1658 23.1444 13.2204 23.2135 13.2124C23.2826 13.2045 23.4368 13.0987 23.4209 12.9634C23.4209 12.9634 23.4155 12.9305 23.3751 12.9339C23.3347 12.9373 23.3677 12.902 23.3847 12.8952C23.4017 12.8884 23.4543 12.8605 23.3177 12.7349C23.3177 12.7349 23.2952 12.7059 23.2688 12.7179C23.248 12.7273 23.1752 12.7699 23.1752 12.8304C23.1752 12.8552 23.1891 12.8805 23.1891 12.8805Z" fill="#FFC221"/>
<path d="M23.3385 12.7105C23.3385 12.7105 23.4475 12.8221 23.447 12.8552C23.4464 12.8884 23.4369 12.9333 23.4656 12.9293C23.4943 12.9254 23.6123 12.8895 23.5799 12.7781C23.5475 12.6667 23.515 12.6275 23.4603 12.6002C23.4055 12.5729 23.3917 12.6099 23.3449 12.6605C23.3449 12.6605 23.3109 12.69 23.3385 12.7105ZM22.7489 12.8679C22.7489 12.8679 22.767 12.7849 22.6691 12.7543C22.6691 12.7543 22.7106 12.7054 22.7935 12.7315C22.8759 12.7575 22.8671 12.835 22.8665 12.8452C22.8665 12.8452 22.802 12.8418 22.7489 12.8679ZM22.9616 12.8486C22.9616 12.8486 23.0749 12.8203 23.1253 12.8293C23.1253 12.8293 23.0695 12.6508 22.9185 12.7116C22.9185 12.7116 22.9727 12.7992 22.9616 12.8486ZM23.1556 12.8043C23.1556 12.8043 23.1556 12.7497 23.2518 12.6951C23.2518 12.6951 23.2051 12.6323 23.1402 12.6383C23.0658 12.6451 23.0509 12.6837 23.0509 12.6837C23.0509 12.6837 23.1317 12.7238 23.1556 12.8043ZM23.1933 12.6178C23.1933 12.6178 23.2529 12.6394 23.2901 12.6849C23.2901 12.6849 23.3466 12.5969 23.3943 12.578C23.3943 12.578 23.3008 12.5064 23.1933 12.6178Z" fill="#FFC221"/>
<path d="M20.0624 12.188C20.0624 12.188 20.3251 11.87 20.4723 11.9084C20.6195 11.9466 20.5457 11.9203 20.7068 11.8845C20.8679 11.8487 21.0338 11.8248 21.1007 11.8367C21.1007 11.8367 20.9061 11.6372 20.5584 11.6406C20.5584 11.6406 20.3128 11.7617 20.1437 11.922C20.1437 11.922 19.8183 11.6628 19.4818 11.818C19.4818 11.818 19.8471 12.0072 20.0624 12.188Z" fill="#5A3719"/>
<path d="M22.856 12.7389L22.8998 12.7284C22.8998 12.7284 22.9739 12.8593 22.9201 12.8608C22.878 12.862 22.895 12.8423 22.8871 12.8043C22.8791 12.7662 22.8648 12.7491 22.856 12.7389ZM22.5258 12.7491C22.5258 12.7491 22.4995 12.7959 22.549 12.7849C22.6092 12.7716 22.5976 12.7878 22.6638 12.7238C22.6638 12.7238 22.7045 12.6621 22.7802 12.7005C22.7802 12.7005 22.844 12.7304 22.8959 12.6946C22.9477 12.6588 22.9597 12.6613 22.9876 12.6647C23.0155 12.6681 23.0136 12.6767 23.0508 12.6379C23.088 12.5991 23.1526 12.6289 23.1933 12.5803C23.234 12.5317 23.285 12.5726 23.1933 12.4788C23.1933 12.4788 23.1742 12.4515 23.1758 12.4285C23.1758 12.4285 23.2109 12.443 23.2388 12.4788C23.2667 12.5146 23.3129 12.5035 23.3209 12.4976C23.3209 12.4976 23.3257 12.3807 23.4071 12.2733C23.4884 12.1659 23.4892 12.1573 23.4414 12.1565C23.3935 12.1556 23.3129 12.1292 23.2858 12.1565C23.2587 12.1837 23.0203 12.4071 22.8815 12.4447C22.7428 12.4822 22.6152 12.5385 22.5258 12.7491ZM18.8231 11.5269C18.8231 11.5269 19.2489 11.6838 19.3446 11.7498C19.3446 11.7498 19.3675 11.648 19.174 11.5684C19.174 11.5684 19.6439 11.5479 20.1416 11.8709C20.1416 11.8709 20.3815 11.577 21.1534 11.668C21.1534 11.668 21.1549 11.5706 21.1602 11.4957C21.1602 11.4957 20.6179 11.4729 20.1203 11.0409C20.1203 11.0409 19.6748 11.3541 18.8231 11.5269ZM21.19 11.8208C21.1602 11.1989 21.3272 11.1432 21.3272 11.1432C21.3272 11.1432 21.4058 11.1439 21.4909 11.1625C21.4909 11.1625 21.3591 11.3865 21.3942 11.8311C21.3942 11.8311 21.408 11.9027 21.2963 11.9027C21.1865 11.9027 21.19 11.8208 21.19 11.8208Z" fill="#FFC221"/>
<path d="M21.3038 12.2324C21.3038 12.2324 21.223 12.1142 21.2145 11.9777C21.2145 11.9777 21.2123 11.9425 21.2942 11.9459C21.3761 11.9493 21.3868 11.9347 21.4069 12.0027C21.4265 12.0689 21.4781 12.2085 21.4909 12.2245L21.3038 12.2324Z" fill="#5A3719"/>
<path d="M21.4787 11.9219C21.4713 11.8406 21.4684 11.7711 21.4697 11.6855C21.475 11.3388 21.5153 11.3696 21.5313 11.4128L21.6143 11.415C21.6143 11.415 21.5537 11.0239 21.4825 11.2524C21.4125 11.4769 21.4176 11.623 21.4261 11.8004C21.431 11.9025 21.4404 11.9661 21.4484 12.0044L21.4787 11.9219Z" fill="#FFC221"/>
<path d="M22.4166 11.9228C22.4166 11.9228 22.5769 11.9578 22.3312 12.0414C22.3312 12.0414 22.3432 12.4654 22.6335 12.1684C22.6335 12.1684 22.805 12.0118 22.9238 11.9481C22.9238 11.9481 22.9836 11.9186 22.9764 11.8546C22.9764 11.8546 22.9812 11.7793 22.919 11.794C22.919 11.794 22.87 11.7957 22.8384 11.7792C22.8384 11.7792 22.8041 11.7216 22.781 11.7437C22.7579 11.7659 22.7036 11.7531 22.7459 11.8264C22.7882 11.8998 22.8009 11.881 22.8217 11.8597C22.8424 11.8384 22.9341 11.7864 22.8496 11.8946C22.7651 12.0029 22.6989 11.835 22.6717 11.8042L22.4166 11.9228ZM21.6143 11.9709L21.5431 11.9686C21.5431 11.9686 21.5048 12.0505 21.4787 11.9219L21.4484 12.0043C21.4484 12.0043 21.5367 12.4596 21.6143 11.9709Z" fill="#5A3719"/>
<path d="M21.5133 11.4456C21.5133 11.4456 21.4771 11.7435 21.5229 11.9277L22.2938 11.9482C22.2938 11.9482 22.2842 11.7344 22.2959 11.4457H22.1864C22.1864 11.4457 22.1715 11.6856 22.1853 11.8334L22.1673 11.8339C22.1673 11.8339 22.1535 11.6264 22.1683 11.4457H22.0779C22.0779 11.4457 22.063 11.6674 22.0747 11.8356H22.0577C22.0577 11.8356 22.045 11.6412 22.0598 11.4457H21.9705C21.9705 11.4457 21.9541 11.6465 21.9717 11.8329L21.9503 11.8322C21.9503 11.8322 21.9323 11.6287 21.9514 11.4457H21.8525C21.8525 11.4457 21.8281 11.6333 21.8514 11.8345H21.8312C21.8312 11.8345 21.8089 11.6424 21.8334 11.4457H21.7345C21.7345 11.4457 21.7111 11.6583 21.7313 11.8345H21.7121C21.7121 11.8345 21.6962 11.6287 21.7174 11.4457H21.6249C21.6249 11.4457 21.6005 11.6253 21.6207 11.8345H21.6005C21.6005 11.8345 21.5856 11.6788 21.6047 11.4457L21.5133 11.4456ZM22.3278 11.9891C22.3278 11.9891 22.3065 11.4502 22.3789 11.3115C22.4512 11.1729 22.466 11.2001 22.5894 11.3115C22.7127 11.4229 22.8722 11.5434 22.8977 11.5571C22.9233 11.5707 22.9594 11.5844 22.9594 11.6822C22.9594 11.78 22.9722 11.8095 22.8659 11.6867C22.8499 11.6683 22.8002 11.6033 22.7643 11.587C22.669 11.5435 22.7872 11.6174 22.8212 11.6867C22.85 11.7454 22.8722 11.739 22.7978 11.7663C22.7234 11.7936 22.466 11.9164 22.3278 11.9891Z" fill="#FFC221"/>
<path d="M22.5977 11.6032C22.5977 11.6032 22.5418 11.5024 22.6128 11.4794C22.6838 11.4564 22.6894 11.6388 22.7013 11.7488C22.7133 11.8588 22.612 11.6377 22.5977 11.6032ZM22.494 12.0729C22.494 12.0729 22.4111 12.1164 22.4653 12.1547C22.5195 12.1931 22.6726 12.0115 22.62 12.0234C22.5674 12.0354 22.494 12.0729 22.494 12.0729ZM22.6064 11.9066C22.6064 11.9066 22.6798 11.8964 22.6655 11.9416C22.6511 11.9868 22.6248 11.958 22.6136 11.9481C22.6024 11.9382 22.5506 11.9126 22.6064 11.9066Z" fill="black"/>
<path d="M22.9972 11.7657C22.9972 11.7657 23.0169 11.9709 23.1402 12.0229C23.1402 12.0229 23.2114 12.0482 23.1966 11.9584C23.1966 11.9584 23.1843 11.8833 23.1742 11.8521C23.1641 11.8208 23.1147 11.8009 23.1094 11.7975C23.1041 11.7941 23.0977 11.7725 23.1317 11.7884C23.1657 11.8043 23.1711 11.8061 23.1684 11.7719C23.1657 11.7378 23.1457 11.7515 23.1145 11.7297C23.1025 11.7213 23.1158 11.71 23.1285 11.714C23.1413 11.7179 23.1716 11.731 23.1721 11.6605C23.1721 11.6605 23.1789 11.6213 23.1413 11.6185C23.1004 11.6153 23.1035 11.5892 23.1163 11.5852C23.1291 11.5813 23.1719 11.6237 23.1838 11.5539C23.1961 11.4823 23.1248 11.5235 23.1344 11.4866C23.144 11.4496 23.1944 11.5077 23.1986 11.4639C23.2027 11.4212 23.2435 11.4027 23.174 11.3889C23.1411 11.3824 23.1715 11.3615 23.2085 11.3689C23.2482 11.3769 23.2721 11.307 23.295 11.2842C23.3178 11.2615 23.447 11.1512 23.2748 11.1876C23.1025 11.2239 23.052 11.3433 23.0408 11.3672C23.0296 11.3911 22.9817 11.532 22.9972 11.7657Z" fill="#FFC221"/>
<path d="M23.3985 11.9247C23.4207 11.9186 23.4416 11.9272 23.4491 11.9492C23.4775 12.0323 23.4124 12.0027 23.3763 12.0641C23.3401 12.1255 23.3391 12.1129 23.288 12.0915C23.237 12.07 23.2178 11.9595 23.2178 11.9595C23.2121 11.9255 23.2342 11.9227 23.2606 11.927C23.2606 11.927 23.3453 11.9393 23.3985 11.9247ZM23.212 11.8805C23.212 11.8805 23.2156 11.9053 23.2448 11.9087C23.274 11.9121 23.359 11.9227 23.4095 11.8994C23.4095 11.8994 23.4281 11.8941 23.4197 11.8471C23.4197 11.8471 23.4191 11.8167 23.3736 11.829C23.3281 11.8414 23.2623 11.829 23.2404 11.8222C23.2185 11.8154 23.2007 11.8228 23.212 11.8805ZM23.2051 11.7315C23.2051 11.7315 23.2035 11.7963 23.2492 11.8049C23.2949 11.8134 23.3518 11.8131 23.3755 11.8064C23.3936 11.8013 23.4262 11.7918 23.4289 11.7537C23.4315 11.7156 23.439 11.6872 23.3826 11.7071C23.3263 11.727 23.2582 11.7139 23.2513 11.7117C23.2444 11.7094 23.2061 11.6929 23.2051 11.7315ZM23.2258 11.6008C23.2258 11.6008 23.2146 11.6303 23.2162 11.6588C23.2178 11.6872 23.2508 11.6969 23.3103 11.698C23.3699 11.6992 23.423 11.6867 23.4268 11.6582C23.4305 11.6298 23.4448 11.5968 23.3981 11.6071C23.3513 11.6173 23.2922 11.6201 23.2689 11.6065C23.2455 11.5928 23.2297 11.5881 23.2258 11.6008Z" fill="#FFC221"/>
<path d="M25.412 11.9305C25.412 11.9305 25.4112 11.9898 25.4439 12.0482L23.791 11.9804C23.791 11.9804 23.8152 11.9591 23.8213 11.8671L25.412 11.9305Z" fill="#5A3719"/>
<path d="M23.2391 11.5031C23.2391 11.5031 23.2247 11.5627 23.2545 11.5747C23.2842 11.5866 23.3353 11.5997 23.4028 11.5844C23.4028 11.5844 23.4368 11.5878 23.4486 11.5361C23.4603 11.4843 23.4591 11.5133 23.3629 11.486C23.3629 11.486 23.3326 11.4734 23.4204 11.4729C23.4204 11.4729 23.4693 11.4752 23.4767 11.4633C23.4842 11.4513 23.549 11.378 23.465 11.3825C23.381 11.3871 23.4225 11.3615 23.465 11.3615C23.5076 11.3615 23.5209 11.374 23.5347 11.3547C23.5485 11.3353 23.5357 11.3484 23.5129 11.3154C23.49 11.2825 23.506 11.2921 23.5224 11.3103C23.5389 11.3285 23.549 11.3342 23.5676 11.3109C23.5863 11.2875 23.5533 11.2535 23.5676 11.2574C23.582 11.2614 23.5889 11.3003 23.6431 11.2628C23.6973 11.2253 23.7707 11.2449 23.7907 11.2662C23.8106 11.2875 23.8672 11.3148 23.9015 11.2645C23.9358 11.2142 23.8608 11.1733 23.8927 11.1664C23.9247 11.1596 23.947 11.1758 23.9597 11.1391C23.9725 11.1025 23.9103 11.0675 23.9701 11.0445C24.0299 11.0215 23.9797 10.7819 23.9589 10.7597C23.9589 10.7597 23.892 10.816 23.8186 10.9857C23.7452 11.1553 23.7021 11.2543 23.6024 11.2023C23.4586 11.1272 23.3851 11.2351 23.3629 11.2545C23.3284 11.2847 23.435 11.2995 23.3728 11.3011C23.3106 11.3029 23.3106 11.3105 23.3042 11.3242C23.2978 11.3378 23.3034 11.3498 23.3146 11.3506C23.3257 11.3515 23.3497 11.3856 23.3114 11.3839C23.2731 11.3821 23.246 11.3736 23.2572 11.4317C23.2572 11.4317 23.2579 11.4444 23.2803 11.4478C23.3026 11.4512 23.3106 11.4845 23.2691 11.4845C23.2425 11.4846 23.2398 11.4993 23.2391 11.5031ZM23.3919 12.0951C23.3919 12.0951 23.3624 12.1249 23.4031 12.1283C23.4438 12.1317 23.4653 12.1428 23.478 12.1117C23.4908 12.0806 23.5458 12.0934 23.5091 12.0499C23.4725 12.0064 23.4477 12.0311 23.3919 12.0951Z" fill="#FFC221"/>
<path d="M23.5625 11.3848C23.5625 11.3848 23.7002 11.1998 23.8152 11.3251C23.9302 11.4505 23.9413 11.4692 23.9429 11.4718C23.9445 11.4744 23.9565 11.488 23.9254 11.5272C23.8943 11.5665 23.9246 11.5656 23.9589 11.5417C23.9932 11.5178 23.9956 11.54 24.0123 11.5664C24.029 11.5929 24.0514 11.6082 23.9984 11.6091C23.9453 11.6099 23.8313 11.6091 23.8313 11.6091C23.8313 11.6091 23.7539 11.6184 23.793 11.5733C23.8321 11.5281 23.8265 11.4744 23.8066 11.471C23.7866 11.4676 23.805 11.4982 23.793 11.5196C23.781 11.5409 23.7539 11.5605 23.7268 11.5596C23.6997 11.5588 23.6758 11.5877 23.7188 11.6099C23.7619 11.6321 23.714 11.6467 23.6917 11.6458C23.6694 11.6449 23.5617 11.6577 23.671 11.6765C23.7803 11.6952 23.6611 11.6907 23.7412 11.756C23.8297 11.8283 23.7659 11.9818 23.7324 11.9954C23.7324 11.9954 23.6957 12.0239 23.742 12.016C23.7882 12.0082 23.8137 11.9988 23.7811 12.0346C23.7484 12.0704 23.683 12.1898 23.5921 12.0986C23.5921 12.0986 23.5506 12.0704 23.6248 12.0653C23.6989 12.0602 23.5642 12.0376 23.5418 12.016C23.5195 11.9945 23.4342 11.87 23.4876 11.8854C23.541 11.9008 23.5219 11.8564 23.49 11.8402C23.4581 11.824 23.4517 11.7541 23.4876 11.7694C23.5235 11.7848 23.5658 11.8134 23.5945 11.8114C23.6232 11.8095 23.6152 11.7924 23.5538 11.7652C23.4924 11.7379 23.4669 11.7336 23.4812 11.6594C23.4956 11.5853 23.5626 11.6884 23.5466 11.633C23.5307 11.5776 23.4725 11.6049 23.5036 11.5315C23.5347 11.4582 23.5418 11.4897 23.5562 11.4991C23.5706 11.5085 23.5935 11.5015 23.553 11.4582C23.5274 11.4308 23.5553 11.3938 23.5625 11.3848Z" fill="#FFC221"/>
<path d="M23.6615 11.436C23.6615 11.436 23.6607 11.4113 23.6854 11.4155C23.7101 11.4198 23.7037 11.4027 23.7109 11.3976C23.7181 11.3925 23.7799 11.4239 23.7221 11.4539C23.7007 11.4649 23.6671 11.457 23.6615 11.436Z" fill="black"/>
<path d="M23.7931 11.6458C23.7931 11.6458 23.7466 11.6796 23.7887 11.7493C23.8246 11.8088 23.8244 11.8276 23.8214 11.8671C23.8183 11.9066 25.412 11.9305 25.412 11.9305C25.412 11.9305 25.4092 11.7843 25.4774 11.702C25.4774 11.702 24.6065 11.673 23.7931 11.6458Z" fill="#FFC221"/>
<path d="M25.4391 11.8904C25.4391 11.8904 25.4456 11.7671 25.4933 11.7262C25.5197 11.7037 25.5544 11.7168 25.5695 11.8162C25.5911 11.9577 25.5072 12.078 25.4682 12.0243C25.4311 11.9731 25.4391 11.8904 25.4391 11.8904Z" fill="#5A3719"/>
<path d="M23.6129 12.4224C23.6129 12.4224 23.719 12.2936 23.735 12.2356C23.735 12.2356 24.0221 12.5262 24.0045 12.2594C24.0045 12.2594 24.0053 12.1879 24.0133 12.1197C24.0133 12.1197 24.1171 12.1342 24.1329 12.0158L23.8649 12.0046C23.8649 12.0046 23.837 11.996 23.7955 12.06C23.7541 12.124 23.6687 12.194 23.589 12.1329C23.589 12.1329 23.5556 12.0915 23.5217 12.1265C23.4877 12.1614 23.4861 12.1717 23.514 12.2092C23.542 12.2468 23.6018 12.3619 23.6129 12.4224ZM24.2294 11.62L24.0723 11.6115C24.0723 11.6115 24.0149 11.4964 23.9032 11.3684C23.9032 11.3684 23.8705 11.348 23.9335 11.2764C23.9965 11.2047 24.0149 11.128 24.0173 11.093C24.0197 11.0581 24.0133 11.0035 24.0372 11.0453C24.0611 11.0871 24.2238 11.2968 24.247 11.2346C24.2701 11.1724 24.2741 11.1434 24.2781 11.1246C24.2821 11.1058 24.2876 11.0478 24.3108 11.1084C24.3339 11.169 24.3498 11.1535 24.3506 11.3105C24.3506 11.3105 24.3546 11.4657 24.3714 11.522C24.3713 11.522 24.1656 11.4278 24.2294 11.62ZM23.5475 11.1425C23.5475 11.1425 23.6671 11.238 23.7262 11.1084C23.7852 10.9788 23.8251 10.9583 23.7804 10.8338C23.7357 10.7093 23.7816 10.6513 23.8153 10.6002C23.849 10.549 23.8777 10.5575 23.8825 10.3597C23.8873 10.1618 23.983 10.0954 24.026 10.034C24.0691 9.97256 24.1776 9.87876 24.0133 9.83956C23.849 9.80032 23.5236 9.67924 23.4391 9.49848C23.3545 9.31772 23.3163 9.42516 23.3147 9.43196C23.3131 9.4388 23.286 9.5718 23.3705 9.81228C23.455 10.0528 23.5268 10.2074 23.6082 10.2852C23.6895 10.3631 23.7629 10.4058 23.7214 10.5661C23.6799 10.7264 23.6081 11.0129 23.5475 11.1425Z" fill="#7B3C20"/>
<path d="M23.9893 10.6312C23.9893 10.6312 24.01 11.0422 24.2205 11.1889C24.2205 11.1889 24.2684 11.0286 24.2492 10.87C24.2492 10.87 24.3178 10.8785 24.337 10.9229C24.337 10.9229 24.3402 10.8035 24.2413 10.76C24.1424 10.7165 24.1902 10.4488 24.2253 10.4181C24.2604 10.3874 24.2492 10.334 24.2253 10.2856C24.2014 10.2373 24.195 10.164 24.2779 10.1947C24.3609 10.2254 24.3481 10.1623 24.2987 10.1043C24.2493 10.0463 24.2508 9.97468 24.321 9.97468C24.3912 9.97468 24.5076 9.87748 24.4374 9.84676C24.3673 9.81608 24.3449 9.78368 24.4406 9.74444C24.5363 9.7052 24.5826 9.65576 24.5108 9.64384C24.439 9.63192 24.3912 9.59608 24.4613 9.57904C24.5315 9.562 24.4486 9.45968 24.3672 9.45456C24.2859 9.44944 24.1105 9.4972 24.2492 9.3386C24.388 9.18 24.0498 9.29596 24.1886 9.19192C24.3274 9.08788 24.1423 9.13392 24.1168 9.13224C24.0913 9.13056 24.0916 9.13224 24.101 9.07936C24.1105 9.02648 24.0817 9.0026 24.0419 9.035C24.002 9.0674 24.002 9.0674 24.0036 8.99408C24.0052 8.92076 23.9557 8.97532 23.9254 8.99408C23.8951 9.01284 23.8186 9.09468 23.7883 9.05036C23.758 9.00604 23.7404 8.95996 23.6463 9.04184C23.5522 9.12368 23.5745 9.05036 23.5761 9.01456C23.5777 8.97876 23.6128 8.8372 23.4836 8.98896C23.3544 9.14076 23.4597 8.82524 23.3576 8.93268C23.2555 9.04012 23.2444 9.05888 23.2284 9.01112C23.2125 8.96336 23.1931 8.92416 23.0808 9.02648C22.9684 9.1288 23.0514 8.96508 23.0673 8.92928C23.0832 8.89348 23.1311 8.66152 23.0322 8.84232C23.0322 8.84232 22.9844 8.96852 22.8775 8.7434C22.8775 8.7434 22.7643 8.96704 22.7355 8.868C22.7068 8.769 22.6781 8.75876 22.6414 8.82356C22.6048 8.88836 22.6319 8.82016 22.6159 8.76556C22.6 8.71096 22.5904 8.61036 22.4022 8.80648C22.214 9.0026 22.4676 8.85936 22.3241 8.94804C22.1805 9.03672 21.8344 9.3164 22.1518 9.2516C22.4692 9.1868 21.9971 9.42896 22.1071 9.47332C22.2172 9.51768 22.1821 9.65408 22.5952 9.49208C23.0083 9.33008 22.9413 9.46648 23.1518 9.33688C23.3624 9.20728 23.104 9.38124 23.3863 9.37268C23.6686 9.36416 23.4342 9.3744 23.4884 9.45796C23.5426 9.54152 23.7819 9.73936 24.0052 9.77176C24.2285 9.80416 24.2827 9.6848 24.2189 9.82292C24.1551 9.96104 24.1328 10.0139 24.0945 10.0617C24.0562 10.1094 23.9509 10.2186 23.9493 10.4096C23.9477 10.6006 23.7739 10.6313 23.8377 10.8428C23.8378 10.8427 23.9367 10.7063 23.9893 10.6312Z" fill="#5A3719"/>
<path d="M24.3566 11.0908C24.3566 11.0908 24.3056 11.0397 24.3066 10.9487C24.3066 10.9487 24.3428 10.9578 24.3566 10.9908C24.3566 10.9908 24.4853 10.7827 24.3316 10.7077C24.178 10.6327 24.2545 10.4337 24.3066 10.4325C24.3587 10.4314 24.3678 10.4109 24.3239 10.3279C24.28 10.2449 24.2832 10.2415 24.3704 10.2199C24.4576 10.1983 24.4458 10.1722 24.407 10.1415C24.3683 10.1108 24.3386 10.0608 24.3386 10.0608C24.3386 10.0608 24.5852 9.9073 24.5055 9.83682C24.4257 9.76634 24.5055 9.78454 24.5767 9.71174C24.6479 9.63898 24.6575 9.62534 24.6681 9.5969C24.6681 9.5969 24.5977 9.60714 24.5457 9.59234C24.5457 9.59234 24.6073 9.54914 24.5457 9.4775C24.4842 9.40586 24.4587 9.34106 24.3608 9.37402C24.263 9.40698 24.2949 9.36038 24.3332 9.30238C24.3715 9.24438 24.3534 9.21142 24.2843 9.19666C24.2843 9.19666 24.2928 9.13754 24.3449 9.06362C24.3449 9.06362 24.212 9.07726 24.1673 9.0443C24.1673 9.0443 24.2205 8.99202 24.2247 8.92946C24.2247 8.92946 24.1514 8.96358 24.0589 8.95106C24.0589 8.95106 24.1131 8.88398 24.1131 8.82486C24.1131 8.82486 23.9526 8.87602 23.8781 8.95674C23.8781 8.95674 23.8622 8.95218 23.8494 8.92718C23.8366 8.90218 23.8271 8.87714 23.6495 8.95786C23.6495 8.95786 23.6697 8.8453 23.7122 8.79982C23.7548 8.75434 23.7484 8.66338 23.4719 8.9101C23.4719 8.9101 23.4347 8.87826 23.4039 8.76002C23.4039 8.76002 23.3443 8.88054 23.2986 8.92146C23.2986 8.92146 23.2603 8.94442 23.2651 8.86758C23.2699 8.79074 23.238 8.8455 23.2093 8.86758C23.1806 8.88966 23.1614 8.94422 23.1758 8.78902C23.1901 8.63382 23.1375 8.60142 23.1375 8.60142C23.1375 8.60142 23.0514 8.77538 23.0019 8.79414C23.0019 8.79414 22.911 8.66794 22.8791 8.58438C22.8472 8.50082 22.8472 8.4701 22.8153 8.61506C22.7834 8.76002 22.7436 8.77194 22.7436 8.77194C22.7436 8.77194 22.6893 8.70542 22.6829 8.66962C22.6829 8.66962 22.6734 8.70886 22.6558 8.7259C22.6558 8.7259 22.608 8.64574 22.6096 8.52978C22.6096 8.52978 22.3129 8.76342 22.2762 8.90498C22.2762 8.90498 21.9955 8.8811 21.8791 8.91182C21.8791 8.91182 21.9078 8.78222 21.9812 8.71742C21.9812 8.71742 21.9078 8.7055 21.9046 8.59806C21.9046 8.59806 21.9636 8.60998 22.0003 8.59634C22.037 8.5827 21.9493 8.4309 22.0418 8.4275C22.1343 8.4241 22.1933 8.49058 22.1518 8.31494C22.1104 8.1393 22.1295 8.1393 22.1295 8.1393C22.1295 8.1393 22.2906 8.27574 22.3161 8.24162C22.3417 8.2075 22.2954 8.13418 22.4389 8.1683C22.5825 8.20242 22.5426 8.08474 22.5984 8.07962C22.6543 8.0745 22.6846 8.13078 22.6495 7.75902C22.6144 7.38726 22.8233 7.94322 22.6814 7.38214C22.6814 7.38214 22.6455 7.21246 22.5601 7.13998C22.5601 7.13998 22.541 7.26278 22.4445 7.15446C22.348 7.04614 22.1582 7.00778 22.238 6.92254C22.3177 6.83726 22.3552 6.72302 22.3321 6.65138C22.3321 6.65138 22.238 6.79182 22.0745 6.69146C21.9453 6.61214 21.9182 6.75798 21.7858 6.71534C21.7858 6.71534 21.7882 6.66674 21.8998 6.54138C22.0115 6.41602 21.8352 6.58318 21.7658 6.60534C21.6965 6.6275 21.6765 6.60962 21.8233 6.44758C21.97 6.28558 22.2603 5.99906 22.2204 5.7637C22.2204 5.7637 22.289 5.88818 22.4692 5.79782C22.6495 5.70746 22.7835 5.67502 22.8377 5.54202C22.8919 5.40898 23.0339 5.27426 23.0706 5.24526C23.1072 5.21626 23.1567 5.19582 23.1009 5.32202C23.045 5.44822 22.9541 5.66482 22.7053 5.81146C22.4565 5.95814 22.3608 6.06558 22.3161 6.1423C22.2715 6.21906 22.045 6.3913 22.1917 6.3623C22.3385 6.3333 22.5937 6.36742 22.4741 6.31794C22.3544 6.2685 22.2189 6.34862 22.3289 6.20538C22.4389 6.06214 22.4581 6.01438 22.6176 5.91886C22.7771 5.82334 22.9541 5.60506 22.9366 5.83698C22.919 6.0689 22.6224 6.31622 22.549 6.39122C22.4756 6.46626 22.5027 6.45434 22.5043 6.48502C22.5059 6.5157 22.4932 6.57882 22.4629 6.60782C22.4326 6.63682 22.4421 6.66922 22.4501 6.73402C22.4581 6.79882 22.4421 6.82442 22.4645 6.83462C22.4868 6.84482 22.5091 6.84998 22.5155 6.89602C22.5219 6.94206 22.5386 6.94802 22.5817 6.9429C22.6248 6.93778 22.6519 6.94374 22.6551 6.97958C22.6583 7.01538 22.6989 7.06398 22.7037 6.95486C22.7085 6.8457 22.7364 6.82438 22.6583 6.8747C22.5801 6.92502 22.5634 6.9071 22.565 6.8551C22.5666 6.8031 22.5578 6.81502 22.5251 6.81074C22.4924 6.80646 22.4812 6.74082 22.5395 6.69734C22.5977 6.65386 22.5969 6.69818 22.6695 6.61206C22.742 6.52594 22.742 6.50206 22.7532 6.46198C22.7644 6.4219 22.6495 6.57882 22.5945 6.61462C22.5395 6.65042 22.5538 6.5899 22.5634 6.50034C22.573 6.41078 22.7101 6.29398 22.7731 6.29226C22.8361 6.29054 22.9781 6.34342 22.9167 6.46622C22.8553 6.58902 22.6814 6.73482 22.7564 6.7459C22.8314 6.75698 22.8433 6.71522 22.8864 6.76978C22.9295 6.82434 22.8896 6.93522 22.8697 6.99406C22.8497 7.0529 22.8083 7.1271 22.7899 7.14074C22.7899 7.14074 22.711 6.9395 22.7134 7.09894C22.7158 7.25838 22.6966 7.31554 22.7134 7.3215C22.7301 7.32746 22.8178 7.41102 22.8457 7.41274C22.8737 7.41446 22.6942 7.53298 22.7692 7.54066C22.8442 7.54834 22.963 7.49378 23.0045 7.3829C23.0045 7.3829 22.8521 7.33002 22.7907 7.24818C22.7907 7.24818 22.9686 7.1885 22.9191 6.94378C22.9191 6.94378 23.0962 7.01286 23.0196 7.1271C22.9431 7.24138 22.8968 7.2243 22.963 7.2567C23.0292 7.2891 23.0619 7.31638 23.0619 7.31638C23.0619 7.31638 23.1072 7.34878 23.0809 7.40166C23.0547 7.45454 23.0539 7.5347 23.0762 7.53298C23.0986 7.53126 23.1735 7.48182 23.1105 7.42726C23.0475 7.3727 23.1823 7.38206 23.1249 7.33602C23.0675 7.28998 23.0523 7.2789 23.0372 7.2567C23.022 7.23454 23.7581 6.61802 23.3865 6.8491C23.3865 6.8491 23.4638 6.6095 23.5723 6.60862C23.6807 6.60774 23.6887 6.73054 23.6273 6.8235C23.5659 6.91646 23.526 7.06142 23.3817 7.0955C23.3817 7.0955 23.588 7.2399 23.3442 7.47582C23.3442 7.47582 23.2913 7.51162 23.3104 7.53778C23.3296 7.56394 23.4742 7.44682 23.4944 7.3809C23.5146 7.31494 23.5454 7.26378 23.6007 7.22514C23.656 7.1865 23.9283 6.92158 24.0101 6.72146C24.092 6.52134 24.1143 6.51454 24.2738 6.3315C24.4333 6.14846 24.4057 6.18482 24.4259 6.1405C24.4461 6.09618 24.4546 6.02338 24.528 5.96426C24.6014 5.90514 24.8863 5.6789 24.9757 5.58678C25.065 5.4947 25.2479 5.3253 25.3266 5.18202C25.4052 5.03878 25.6171 4.85578 25.67 4.88982C25.7229 4.92386 25.6647 5.03082 25.5403 5.1661C25.4159 5.30138 25.1075 5.65726 25.0575 5.71182C25.0075 5.76638 24.746 6.03926 24.6481 6.05746C24.5503 6.07566 24.5609 6.12454 24.5025 6.2155C24.444 6.30646 24.3089 6.49746 24.2632 6.54978C24.2175 6.60206 24.109 6.70894 24.1026 6.78398C24.0963 6.85902 24.1218 6.8681 24.0346 6.98522C23.9474 7.10234 23.6922 7.36722 23.5997 7.4093C23.5997 7.4093 23.7634 7.48662 23.6656 7.64466C23.5678 7.8027 23.5742 7.77994 23.5667 7.79018C23.5667 7.79018 23.8154 7.7379 23.639 8.01414C23.639 8.01414 23.605 8.09374 23.6837 8.01074C23.7678 7.92202 23.7315 7.80042 23.722 7.78334C23.722 7.78334 23.8538 7.66622 24.0059 7.66282C24.1579 7.65942 24.1526 7.64462 24.0165 7.5889C24.0165 7.5889 24.1133 7.42062 24.1952 7.50362C24.277 7.58662 24.2505 7.63438 24.1643 7.7003C24.0782 7.76626 23.9506 7.79354 23.856 7.86858C23.856 7.86858 24.0357 7.91862 24.1324 7.81402C24.2292 7.70942 24.2335 7.76174 24.2462 7.7799C24.259 7.7981 24.2696 7.83218 24.227 7.91974C24.1845 8.0073 24.1803 8.01182 24.1824 8.03118C24.1845 8.0505 24.1792 8.11078 24.092 8.13122C24.0048 8.1517 23.9655 8.20398 23.9952 8.2631C24.025 8.32222 24.0261 8.4689 23.9516 8.45526C23.8772 8.44162 23.8974 8.3575 23.8687 8.3245C23.84 8.29154 23.7996 8.24038 23.6698 8.33702C23.5401 8.43366 23.5295 8.31882 23.5359 8.25858C23.5359 8.25858 23.4519 8.36318 23.3817 8.26654C23.3115 8.1699 23.3753 8.13238 23.4157 8.0835C23.4561 8.03462 23.6209 7.9323 23.522 7.95046C23.4232 7.96862 23.2754 7.97774 23.2413 7.86862C23.2073 7.75946 23.3147 7.77198 23.3317 7.78222C23.3487 7.79246 23.4189 7.87318 23.421 7.76742C23.4231 7.6617 23.5326 7.6503 23.4954 7.6287C23.4582 7.6071 23.4061 7.67418 23.3912 7.70034C23.3912 7.70034 23.3147 7.54798 23.1913 7.59802C23.068 7.64806 23.2307 7.62758 23.2636 7.63554C23.2966 7.6435 23.2775 7.73106 23.1669 7.87318C23.0563 8.0153 23.1062 7.9721 23.1881 7.9721C23.27 7.9721 23.471 7.97322 23.354 8.10966C23.237 8.2461 23.1903 8.3143 23.1296 8.29042C23.069 8.26654 23.1371 8.2097 23.1637 8.18582C23.1902 8.16194 23.2062 8.11986 23.1488 8.15058C23.0913 8.1813 23.0711 8.18698 23.0254 8.07098C22.9797 7.95502 22.9989 7.98914 23.018 7.91294C23.0371 7.83678 23.0818 7.75606 23.0286 7.78446C22.9754 7.81286 22.9808 7.81514 22.985 7.72762C22.9893 7.64006 22.9244 7.62074 22.9244 7.62074C22.9244 7.62074 22.9499 7.7083 22.9265 7.76398C22.9031 7.81966 22.9021 7.83902 22.9404 7.85378C22.9786 7.86858 23.0148 7.91518 22.9627 7.96634C22.9106 8.0175 22.917 8.0107 22.9499 8.04138C22.9829 8.07206 23.0307 8.10734 22.9797 8.17894C22.9286 8.25054 22.9712 8.22898 22.9967 8.22898C23.0222 8.22898 23.08 8.25966 23.0809 8.33018C23.0818 8.40066 23.0775 8.41774 23.1604 8.35178C23.2434 8.28582 23.4092 8.29378 23.4071 8.3859C23.405 8.47798 23.3858 8.50074 23.4741 8.4223C23.5624 8.34386 23.6017 8.49622 23.6623 8.4223C23.723 8.34838 23.7612 8.27678 23.8314 8.40298C23.9016 8.52918 23.8797 8.56734 23.7942 8.6565C23.7087 8.74566 23.8357 8.67698 23.9005 8.62922C23.9654 8.58146 24.1472 8.54962 24.2514 8.61558C24.3556 8.68154 24.3854 8.66674 24.462 8.62126C24.5385 8.57578 24.5779 8.56554 24.6938 8.67582C24.8097 8.7861 24.9001 8.80658 24.9607 8.8043C24.9607 8.8043 24.832 8.87594 24.6874 8.88958C24.5428 8.90322 24.4705 8.94186 24.4418 8.9737C24.4418 8.9737 24.5287 9.04874 24.5459 9.14082C24.5459 9.14082 24.6406 9.12262 24.6874 9.1499C24.6874 9.1499 24.663 9.24766 24.7214 9.29998C24.7799 9.35226 24.8203 9.37162 24.7767 9.44322C24.7331 9.51486 24.8437 9.48414 24.781 9.58534C24.7183 9.68654 24.7013 9.7377 24.6991 9.81954C24.697 9.90142 24.713 9.9139 24.6566 9.92186C24.6002 9.92982 24.6662 10.0196 24.6406 10.1265C24.6151 10.2334 24.4577 10.222 24.4641 10.5085C24.4641 10.5085 24.5077 10.3687 24.6013 10.2459C24.6949 10.1231 24.6981 10.1117 24.6959 10.0378C24.6938 9.96386 24.6895 9.98094 24.7395 9.92522C24.7895 9.8695 24.7172 9.81722 24.7672 9.73762C24.8171 9.65802 24.7736 9.67394 24.832 9.59322C24.8905 9.5125 24.781 9.50226 24.8406 9.41926C24.9001 9.33626 24.697 9.2419 24.7555 9.18846C24.814 9.13502 24.915 9.06114 24.5747 9.0691C24.5747 9.0691 24.6566 8.87582 24.9437 8.9179C24.9437 8.9179 24.8682 8.99406 24.8618 9.0691C24.8618 9.0691 24.8948 9.09298 24.915 9.09978C24.915 9.09978 24.9039 9.15478 24.8491 9.22142C24.8491 9.22142 25.0012 9.34306 25.0256 9.4147C25.0256 9.4147 24.9331 9.45562 24.9097 9.51362C24.9097 9.51362 24.9501 9.57958 24.964 9.66482C24.964 9.66482 24.8608 9.64662 24.847 9.7569C24.8332 9.86718 24.8023 9.79214 24.8023 9.85694C24.8023 9.92174 24.8055 9.9479 24.7694 9.95814C24.7332 9.96838 24.763 10.0229 24.7694 10.0593C24.7758 10.0957 24.7875 10.1787 24.7821 10.2049C24.7821 10.2049 24.73 10.206 24.7056 10.2162C24.7056 10.2162 24.7216 10.3743 24.6599 10.397C24.5982 10.4197 24.6928 10.4515 24.6269 10.4686C24.561 10.4857 24.5695 10.4913 24.4887 10.6983C24.4887 10.6983 24.5578 10.6426 24.629 10.5755C24.7003 10.5084 24.6237 10.5289 24.7417 10.3629C24.8598 10.1969 24.8385 10.1844 24.8289 10.1003C24.8194 10.0161 24.8172 9.9479 24.8598 9.86834C24.9023 9.78874 24.9161 9.69778 25.0671 9.70918C25.0671 9.70918 25.0224 9.56566 24.9671 9.5283C24.9671 9.5283 25.0394 9.45678 25.116 9.44658C25.116 9.44658 25.049 9.33174 24.9119 9.22034C24.9119 9.22034 25.0246 9.08162 25.0512 9.0157C25.0512 9.0157 24.9991 9.02706 24.9576 9.01342C24.9576 9.01342 24.9771 8.94706 25.0788 8.85198C25.0788 8.85198 25.133 8.92702 25.1309 9.00546C25.1309 9.00546 25.3053 8.86222 25.4042 8.87814C25.4042 8.87814 25.4542 9.05778 25.2117 9.3943C25.2117 9.3943 25.3617 9.41478 25.4254 9.40226C25.4254 9.40226 25.3893 9.56826 25.2075 9.66602C25.0256 9.76378 25.2468 9.87806 25.0607 9.85818C24.8747 9.8383 24.9321 9.92982 24.9374 10.0651C24.9427 10.2004 24.9491 10.3391 24.9448 10.3766C24.9448 10.3766 24.796 10.3073 24.7991 10.5131C24.8023 10.7189 24.7226 10.7621 24.7066 10.7814C24.7066 10.7814 24.6634 10.7262 24.5982 10.6938C24.598 10.694 24.5057 10.9445 24.3566 11.0908Z" fill="#5A3719"/>
<path d="M24.1438 8.51122C24.1438 8.51122 24.1949 8.4993 24.281 8.57602C24.3671 8.65274 24.4517 8.49418 24.356 8.45322C24.2603 8.41226 24.3576 8.36454 24.4437 8.46346C24.5298 8.56238 24.5633 8.5129 24.5952 8.47882C24.6271 8.44474 24.6654 8.42594 24.6064 8.36798C24.5474 8.30998 24.6463 8.3373 24.6909 8.37822C24.7356 8.41914 24.718 8.46178 24.7117 8.47374C24.7053 8.4857 24.7005 8.6187 24.7882 8.49422C24.8759 8.36974 24.919 8.24522 24.9174 8.18382C24.9174 8.18382 24.9653 8.22646 24.9716 8.3049C24.978 8.38334 25.045 8.26226 25.0674 8.21962C25.0897 8.17698 25.128 8.06938 25.1232 7.98846C25.1232 7.98846 25.1822 8.11886 25.2699 7.98846C25.3577 7.85806 25.3194 7.93994 25.4247 7.9007C25.5299 7.86146 25.6623 7.75062 25.7341 7.62614C25.8059 7.50166 25.8106 7.58522 25.9032 7.5545C25.9957 7.52382 26.1823 7.33962 26.1998 7.23898C26.2174 7.13838 26.2142 7.07698 26.187 7.11106C26.1599 7.14514 26.1711 7.1179 26.1312 7.08206C26.0913 7.04626 26.0323 7.1281 26.0323 7.1281C26.0323 7.1281 26.0913 7.1929 26.0467 7.22018C26.002 7.24746 25.959 7.33786 25.8744 7.30374C25.7899 7.26962 25.7022 7.41458 25.7022 7.41458C25.7022 7.41458 25.7755 7.50154 25.6767 7.55614C25.5778 7.6107 25.5937 7.62946 25.5331 7.56978C25.5331 7.56978 25.4278 7.76078 25.3672 7.80002C25.3672 7.80002 25.3385 7.79662 25.3194 7.76078C25.3194 7.76078 25.2508 7.87162 25.2157 7.89382C25.2157 7.89382 25.1726 7.83414 25.1328 7.81538C25.1328 7.81538 25.0498 7.96206 24.9796 8.0081C24.9796 8.0081 24.9589 7.95354 24.9142 7.91602C24.9142 7.91602 24.8922 8.10786 24.7452 8.2213C24.7452 8.2213 24.7547 8.17014 24.6813 8.10022C24.6813 8.10022 24.4995 8.32534 24.4278 8.3475C24.356 8.36966 24.423 8.29974 24.4325 8.27074C24.4421 8.24174 24.4868 8.14626 24.3991 8.10702C24.3113 8.06778 24.3257 8.1343 24.3065 8.14626C24.2874 8.15818 24.2858 8.1241 24.2268 8.13602C24.1678 8.14794 24.1773 8.18546 24.1518 8.19914C24.1263 8.21278 24.0242 8.17526 24.029 8.27246C24.0338 8.36966 24.0817 8.43618 23.9924 8.49246C23.903 8.54874 24.0258 8.53682 24.1438 8.51122Z" fill="#7B3C20"/>
<path d="M24.5123 8.2368C24.5123 8.2368 24.5331 8.114 24.4581 8.05432C24.4581 8.05432 24.9398 7.9486 24.5761 7.68596C24.5761 7.68596 25.0083 7.55804 24.9063 7.36024C24.8042 7.1624 24.7049 7.20676 24.69 7.21016C24.675 7.21356 24.7819 7.09588 24.8106 7.11124C24.8393 7.1266 25.187 7.3176 25.0977 7.15388C25.0084 6.99016 25.0163 7.0004 25.002 6.95264C25.002 6.95264 25.1168 6.95264 25.2907 7.1948C25.2907 7.1948 25.3274 7.14024 25.3226 7.04132C25.3226 7.04132 25.447 7.09076 25.4852 7.14364C25.4852 7.14364 25.506 7.08224 25.498 7.04812C25.498 7.04812 25.6049 7.12996 25.6416 7.21696C25.6416 7.21696 25.691 7.15556 25.699 7.08564C25.699 7.08564 25.8059 7.14876 25.833 7.19648C25.833 7.19648 25.8681 7.12996 25.8553 7.03448C25.8553 7.03448 26.0323 7.10952 26.0563 6.95264C26.0563 6.95264 26.2344 7.0078 26.1186 7.10684C25.9698 7.23416 26.1036 7.07544 25.951 7.2272C25.8326 7.34488 25.7665 7.483 25.7096 7.4546C25.6678 7.43372 25.6176 7.60752 25.5602 7.52224C25.5027 7.43696 25.5027 7.4762 25.4629 7.56488C25.423 7.65356 25.3608 7.74396 25.3608 7.74396C25.3608 7.74396 25.3297 7.71836 25.3062 7.68428C25.3062 7.68428 25.2715 7.76612 25.2268 7.82752C25.2268 7.82752 25.1917 7.761 25.1359 7.72008C25.1359 7.72008 25.0482 7.86504 24.9939 7.91448C24.9939 7.91448 24.9429 7.84284 24.8887 7.81896C24.8887 7.81896 24.8807 8.01508 24.7738 8.11572C24.7738 8.11572 24.7515 8.05092 24.6829 8.01168C24.683 8.01168 24.6287 8.13568 24.5123 8.2368Z" fill="#5A3719"/>
<path d="M24.2589 7.93642C24.2589 7.93642 24.2004 8.00066 24.2382 8.06946C24.2759 8.13822 24.278 8.05754 24.3259 8.0507C24.3737 8.04386 24.9639 7.8989 24.4296 7.67038C24.4296 7.67038 24.4519 7.64138 24.5444 7.62946C24.6369 7.61754 24.9718 7.4879 24.8155 7.31738C24.6592 7.14682 24.5292 7.37534 24.6608 7.1707C24.7661 7.00698 24.6816 6.92682 24.6816 6.92682C24.6816 6.92682 24.3705 7.22358 24.302 7.27814C24.2334 7.3327 24.1345 7.43674 24.2509 7.4913C24.3673 7.54586 24.4471 7.31054 24.4583 7.36338C24.4694 7.41626 24.2238 7.61066 24.2589 7.70106C24.294 7.79146 24.286 7.8665 24.3466 7.84942C24.4072 7.83238 24.5715 7.89378 24.4375 7.88694C24.3036 7.8801 24.2589 7.93642 24.2589 7.93642Z" fill="#5A3719"/>
<path d="M24.4726 7.51196C24.4726 7.51196 24.4183 7.5664 24.4901 7.53912C24.5619 7.51184 24.7054 7.46748 24.6783 7.41464C24.6512 7.36176 24.5555 7.42512 24.4726 7.51196Z" fill="black"/>
<path d="M25.4201 6.63203C25.4201 6.63203 25.6944 6.62179 25.8076 6.73095C25.9209 6.84011 25.9751 6.91171 26.0086 6.92707C26.0086 6.92707 26.0038 7.07543 25.8284 6.96971C25.8284 6.96971 25.8379 7.04135 25.8188 7.11127C25.8188 7.11127 25.7534 7.04987 25.6784 7.02259C25.6784 7.02259 25.6656 7.07887 25.6417 7.11127C25.6417 7.11127 25.5636 6.99871 25.4759 6.96459C25.4759 6.96459 25.4583 7.02087 25.4424 7.04135C25.4424 7.04135 25.3483 6.96459 25.2765 6.96631C25.2765 6.96631 25.2909 7.04819 25.2765 7.08059C25.2765 7.08059 25.0771 6.85719 24.9001 6.88619C24.9001 6.88619 24.9862 7.06527 25.042 7.15395C25.042 7.15395 24.6832 7.11303 24.7422 6.83675C24.8012 6.56047 24.7374 6.62987 24.9719 6.63183C25.2063 6.63379 25.4201 6.63203 25.4201 6.63203Z" fill="#7B3C20"/>
<path d="M23.7373 7.39521C23.7373 7.39521 23.6958 7.44349 23.7373 7.48445C23.7787 7.52537 23.9207 7.37873 23.9398 7.35825C23.959 7.33777 24.01 7.34122 23.9398 7.41626C23.8697 7.4913 23.7979 7.57313 23.7532 7.65501C23.7532 7.65501 23.9909 7.56293 24.1456 7.37193C24.3003 7.18093 24.1384 7.30465 24.4024 7.12293C24.6663 6.94121 24.8043 6.64882 24.6623 6.67954C24.5204 6.71022 24.3928 6.94217 24.2827 7.03085C24.1727 7.11953 24.1105 7.13145 24.128 7.08029C24.1456 7.02913 24.2269 7.04962 24.3784 6.87566C24.53 6.7017 24.4964 6.71365 24.498 6.65225C24.4996 6.59085 24.4406 6.43909 24.6687 6.26853C24.8968 6.09797 25.6066 5.50449 25.6671 5.30157C25.6671 5.30157 25.4598 5.33397 25.1871 5.62217C24.9143 5.91037 24.7683 6.04513 24.693 6.08093C24.6176 6.11673 24.6272 6.09285 24.5778 6.17645C24.5283 6.26001 24.2588 6.63181 24.2093 6.68637C24.1599 6.74093 24.1455 6.77677 24.1413 6.88801C24.1394 6.93869 23.8314 7.27017 23.7373 7.39521Z" fill="#5A3719"/>
<path d="M24.675 6.6224C24.675 6.6224 24.6223 6.65732 24.5713 6.6224C24.5203 6.58748 24.5362 6.43056 24.659 6.33676C24.7818 6.24296 25.0051 6.10312 25.1184 6.08264C25.1184 6.08264 25.1024 6.2856 24.7499 6.45612C24.7499 6.45612 24.7723 6.5618 24.675 6.6224Z" fill="#5A3719"/>
<path d="M24.7996 6.49042C24.7996 6.49042 24.8098 6.54034 24.7996 6.58594C24.7996 6.58594 25.4551 6.67634 25.7933 6.1067C25.7933 6.1067 25.3291 6.1681 25.1441 6.3267C25.1441 6.3267 25.2606 6.11862 25.6083 5.94638C25.956 5.77414 26.098 5.56094 26.1282 5.4433C26.1282 5.4433 25.6885 5.6633 25.4791 5.6633C25.4791 5.6633 25.4376 5.66158 25.3978 5.69398C25.3579 5.72638 25.0772 6.01802 25.0022 6.06746C25.0022 6.06746 25.1601 6.0487 25.2159 5.97538C25.2159 5.97538 25.1062 6.39694 24.7996 6.49042Z" fill="#AA5323"/>
<path d="M23.5444 7.02561C23.5444 7.02561 23.4598 7.11089 23.4949 7.15353C23.53 7.19617 23.5904 7.20469 23.7189 7.05121C23.8474 6.89773 24.1584 6.51569 23.9619 6.50037C23.9619 6.50037 23.7102 6.47821 23.7189 6.69821C23.7277 6.92037 23.557 7.01165 23.5444 7.02561ZM22.9638 6.89597C22.9638 6.89597 23.1296 7.03409 23.0675 7.14837C23.0675 7.14837 23.5763 6.53101 23.4327 6.39797C23.2892 6.26493 23.1759 6.51565 23.211 6.54121C23.2461 6.56681 23.3211 6.51905 23.294 6.56681C23.2668 6.61457 22.9957 6.87553 22.9638 6.89597ZM22.8314 6.69645C22.8314 6.69645 22.943 6.74421 22.9478 6.81241C22.9526 6.88061 23.2843 6.47813 23.1966 6.30933C23.1564 6.23193 22.9717 6.20017 22.9637 6.35197C22.9558 6.50377 23.1296 6.33661 23.069 6.44577C22.9896 6.58889 22.8553 6.67257 22.8314 6.69645ZM24.0254 6.36013C24.0254 6.36013 23.9543 6.43381 24.0181 6.47817C24.0819 6.52253 24.1234 6.45257 24.1553 6.41165C24.1872 6.37073 24.3451 6.20529 24.3818 6.09957C24.4184 5.99385 24.4727 5.96145 24.5301 5.90685C24.5875 5.85229 24.9927 5.56405 25.2415 5.24513C25.4903 4.92621 25.3866 5.00809 25.645 4.80341C25.9034 4.59877 26.0724 4.41117 26.1267 4.18945C26.1267 4.18945 26.0071 4.24573 25.9018 4.34293C25.7965 4.44013 25.5589 4.65333 25.511 4.68229C25.4632 4.71125 25.3962 4.71641 25.3611 4.76925C25.326 4.82213 25.3292 4.88521 25.2048 5.03189C25.0804 5.17857 24.4376 5.82661 24.3594 5.91869C24.2813 6.01089 24.0254 6.36013 24.0254 6.36013Z" fill="#5A3719"/>
<path d="M23.5082 6.57484C23.5082 6.57484 23.5784 6.51956 23.7103 6.53244C23.8421 6.54528 24.3631 5.82448 24.5141 5.67896C24.6651 5.53344 25.1373 5.0468 25.2011 4.95812C25.2649 4.86944 25.2755 4.77392 25.3308 4.72164C25.3861 4.66936 25.4371 4.67616 25.5647 4.57156C25.6923 4.46696 26.3048 3.94396 26.2686 3.63928C26.2686 3.63928 25.3563 4.42148 25.1458 4.67616C24.9352 4.93084 24.3504 5.5084 24.2462 5.60164C24.142 5.69488 24.059 5.85632 23.8846 6.05868C23.7103 6.26104 23.538 6.43156 23.5082 6.57484Z" fill="#AA5323"/>
<path d="M23.3167 6.2976C23.3167 6.2976 23.4856 6.27292 23.5081 6.39084C23.5081 6.39084 23.8697 6.03612 23.9526 5.8906C24.0355 5.74508 23.925 5.8292 24.1312 5.63592C24.3375 5.44264 25.0223 4.7582 25.1201 4.6354C25.218 4.5126 25.403 4.35116 25.5518 4.20792C25.7007 4.06468 26.2834 3.65764 26.2175 3.32336C26.2175 3.32336 25.79 3.73264 25.6943 3.82136C25.5986 3.91004 25.5582 3.86 25.4604 3.96916C25.3626 4.07832 25.1478 4.2966 25.1095 4.3648C25.0712 4.433 24.7437 4.79228 24.5842 4.94464C24.4247 5.097 24.0674 5.3926 23.8952 5.60636C23.7229 5.82008 23.389 6.21576 23.3167 6.2976Z" fill="#AA5323"/>
<path d="M22.7906 6.22761C22.7906 6.22761 22.876 6.22937 22.9015 6.27713C22.9015 6.27713 23.0594 6.07925 23.2274 6.27481C23.2274 6.27481 23.8442 5.67905 23.9059 5.52897C23.9675 5.37889 24.0675 5.37661 24.3078 5.12649C24.5481 4.87637 24.6991 4.77177 24.8586 4.59441C25.0181 4.41705 25.1521 4.21693 25.2669 4.11009C25.3818 4.00321 25.671 3.73261 25.6221 3.49841C25.6221 3.49841 25.3881 3.68941 25.235 3.92817C25.0819 4.16693 25.0947 3.96229 24.9394 4.16237C24.7842 4.36249 24.5439 4.63533 24.344 4.77633C24.1441 4.91733 24.2653 4.90141 24.1207 5.03329C23.9761 5.16517 23.9867 5.14473 23.9335 5.16289C23.8803 5.18109 23.7995 5.23565 23.7464 5.32433C23.6932 5.41301 23.5507 5.53353 23.3955 5.65861C23.2402 5.78365 22.8585 6.10825 22.7906 6.22761Z" fill="#AA5323"/>
<path d="M22.9765 5.77044C22.9765 5.77044 22.943 5.67152 23.002 5.6016C23.061 5.53168 23.1679 5.34748 23.1854 5.23152C23.203 5.11556 23.1902 5.13432 23.3609 5.03368C23.5316 4.93308 23.9191 4.67384 24.1377 4.48112C24.3562 4.2884 24.688 3.97804 24.7565 3.903C24.8251 3.82796 24.9915 3.66084 25.059 3.5824C25.059 3.5824 25.0915 3.71372 25.0181 3.80412C24.9447 3.89452 24.6624 4.1776 24.6162 4.22196C24.5699 4.26632 24.3099 4.51528 24.2302 4.5784C24.1504 4.64152 23.9526 4.78476 23.8825 4.86832C23.8123 4.95188 23.8213 4.97748 23.5082 5.19576C23.195 5.41404 23.1807 5.43624 23.1902 5.45328C23.1998 5.47032 23.3402 5.38336 23.4071 5.32708C23.4742 5.2708 23.7309 5.10368 23.8075 5.01668C23.884 4.92972 24.0132 4.79328 24.0691 4.74892C24.1249 4.70456 24.5874 4.30892 24.7198 4.16908C24.8522 4.02924 24.8889 3.9832 24.9176 4.00708C24.9463 4.03096 24.9926 4.03268 24.9336 4.1128C24.8745 4.19296 24.6864 4.42832 24.6146 4.49652C24.5428 4.56472 24.3179 4.75576 24.2557 4.8018C24.1935 4.84784 24.1696 4.93312 24.1345 4.96892C24.0994 5.00472 23.9973 5.10876 23.8729 5.14968C23.7485 5.1906 23.7262 5.32364 23.6448 5.39868C23.5635 5.47372 22.9846 5.91884 22.967 5.941C22.967 5.941 23.002 5.8898 22.9765 5.77044Z" fill="#AA5323"/>
<path d="M24.9796 3.9134C24.9796 3.9134 24.9477 3.95376 24.9653 3.97652C24.9884 4.00652 25.0689 4.08736 25.1694 3.94496C25.2699 3.80256 25.5398 3.49216 25.6274 3.41884C25.7149 3.34552 25.7564 3.2756 25.7532 3.17496C25.7532 3.17496 25.3385 3.49048 24.9796 3.9134ZM25.5506 3.85884C25.5506 3.85884 25.6144 3.70704 25.7707 3.5638C25.927 3.42056 26.1617 3.212 26.1934 3.16132C26.1934 3.16132 26.2492 3.25172 26.1264 3.36256C26.0036 3.4734 25.7643 3.70024 25.7356 3.73264C25.7069 3.76504 25.6591 3.81448 25.5506 3.85884Z" fill="#AA5323"/>
<path d="M22.372 5.51123C22.372 5.51123 22.1981 5.64427 22.2603 5.72783C22.3226 5.81139 22.4151 5.78583 22.4534 5.76195C22.4916 5.73807 22.565 5.71251 22.5762 5.70739C22.5873 5.70227 22.7388 5.64087 22.7771 5.54027C22.8154 5.43967 22.9175 5.32367 22.9988 5.24011C23.0802 5.15655 23.1089 5.07299 23.0977 5.01331C23.0977 5.01327 22.413 5.47531 22.372 5.51123ZM21.3384 6.65899C21.3384 6.65899 21.4585 6.55695 21.6271 6.62147C21.6271 6.62147 21.6191 6.56279 21.5936 6.53243C21.5936 6.53243 21.7978 6.45603 21.8424 6.32643C21.8871 6.19683 21.8967 6.22411 21.9366 6.18659C21.9764 6.14907 22.2524 5.83187 22.2205 5.76363C22.1886 5.69539 22.1822 5.60675 22.1583 5.57091C22.1583 5.57091 22.1008 5.68347 21.8329 5.86935C21.5649 6.05523 21.2667 6.19507 21.0497 6.61291C20.8328 7.03075 20.8551 7.27291 21.1199 7.37863C21.1199 7.37863 21.3065 7.21151 21.7611 7.26947C22.2157 7.32747 22.3704 7.57131 22.3991 7.61567C22.4278 7.66003 22.5203 7.82031 22.431 8.09147C22.431 8.09147 22.5219 8.14775 22.5299 8.02327C22.5379 7.89879 22.5427 7.92775 22.5634 7.94651C22.5841 7.96527 22.6096 7.96867 22.6001 7.87319C22.5905 7.77767 22.5586 7.56451 22.5171 7.49119C22.4757 7.41787 22.5219 7.45027 22.549 7.46559C22.5761 7.48095 22.6718 7.59179 22.6144 7.38715C22.557 7.18251 22.5427 7.28311 22.5411 7.29335C22.5395 7.30359 22.5283 7.35475 22.4039 7.22171C22.2795 7.08867 22.1662 7.02387 22.0817 6.98979C21.9972 6.95571 22.0562 6.95567 22.1056 6.93011C22.1551 6.90451 22.222 6.88919 22.2444 6.81075C22.2444 6.81075 22.1949 6.82779 22.104 6.78175C22.0131 6.73571 21.8313 6.73059 21.6845 6.88747C21.6845 6.88747 21.7308 6.64531 21.5968 6.65895C21.4628 6.67259 21.3687 6.66747 21.2268 6.82779C21.2268 6.82779 21.2188 6.58391 21.3528 6.45771C21.4867 6.33151 21.4692 6.40827 21.5442 6.37587C21.6191 6.34347 21.6255 6.23603 21.5936 6.20191C21.5936 6.20191 21.7691 6.24455 22.0641 5.89495C22.0641 5.89495 21.9056 6.19171 21.7129 6.25139C21.7129 6.25139 21.6824 6.40935 21.5075 6.44411C21.3326 6.47887 21.3368 6.62319 21.3384 6.65899Z" fill="#7B3C20"/>
<path d="M20.8348 8.10444C20.8348 8.10444 20.9209 7.36956 21.4026 7.31636C21.8247 7.26976 21.9587 7.3448 22.0427 7.38344C22.1268 7.42208 22.3319 7.50852 22.2522 7.60288C22.1725 7.69724 22.1267 7.6802 22.1267 7.6802C22.1267 7.6802 22.2192 7.53352 22.1352 7.50852C22.0512 7.48352 22.0438 7.55628 22.0321 7.61768C22.0204 7.67908 22.0151 7.75296 21.9736 7.80072C21.9736 7.80072 21.9311 7.73024 21.8704 7.79164C21.8098 7.85304 21.8619 7.85532 21.8864 7.84508C21.9109 7.83484 21.9428 7.81664 21.9364 7.87008C21.93 7.92352 21.896 8.0156 21.796 8.09064C21.6961 8.16568 21.7014 8.16112 21.5823 8.1884C21.4632 8.21568 21.3526 8.28276 21.2006 8.46924C21.0485 8.65568 20.8821 8.59348 20.8486 8.38512C20.8199 8.20644 20.8348 8.10444 20.8348 8.10444Z" fill="#5A3719"/>
<path d="M21.3862 8.08142C21.3862 8.08142 21.4325 7.93646 21.3495 7.86994C21.3495 7.86994 21.0959 7.93206 21.021 7.82218C21.021 7.82218 21.2969 7.8017 21.4676 7.70622C21.6382 7.6107 21.5872 7.54422 21.5282 7.52886C21.4692 7.5135 21.3607 7.55102 21.3495 7.62778C21.3495 7.62778 21.3161 7.54594 21.3591 7.49134C21.4022 7.43674 21.4692 7.42654 21.5298 7.4521C21.5904 7.4777 21.6446 7.51522 21.844 7.36682C21.844 7.36682 21.9588 7.40434 21.962 7.51518C21.9652 7.62602 21.954 7.67206 21.9445 7.68914C21.9349 7.70618 21.9205 7.73858 21.8966 7.73518C21.8727 7.73178 21.8424 7.72326 21.8121 7.79998C21.7818 7.87674 21.7636 7.94322 21.7129 7.99438C21.7129 7.99438 21.7722 7.75562 21.6255 7.69934C21.6255 7.69934 21.5042 7.80166 21.4117 7.80678C21.4117 7.80686 21.5298 7.96374 21.3862 8.08142Z" fill="black"/>
<path d="M21.651 7.64315C21.651 7.64315 21.5951 7.55531 21.6685 7.54595C21.7419 7.53659 21.8392 7.61331 21.8201 7.67811C21.8009 7.74291 21.7148 7.74035 21.651 7.64315Z" fill="#5A3719"/>
<path d="M25.7964 6.47841C25.7964 6.47841 25.6624 6.53297 25.7868 6.65065C25.9112 6.76833 25.9718 6.87065 26.0627 6.90477C26.1537 6.93889 26.2478 6.98661 26.2462 7.11625C26.2446 7.24585 26.227 7.29701 26.1776 7.38569C26.1281 7.47437 26.2047 7.51361 26.2701 7.46245C26.3355 7.41129 26.3913 7.38401 26.4344 7.34817C26.4774 7.31233 26.5492 7.31749 26.4838 7.36521C26.4184 7.41297 26.3499 7.44197 26.4344 7.44537C26.5189 7.44877 27.0277 7.46241 27.1346 7.41297C27.2414 7.36353 27.3802 7.34817 27.393 7.15033C27.393 7.15033 27.3978 7.06249 27.4376 7.02585C27.4775 6.98917 27.5046 6.90477 27.4464 6.96189C27.3882 7.01901 27.3435 7.04801 27.3323 7.03097C27.3212 7.01393 27.318 7.00196 27.3603 6.97384C27.4025 6.94572 27.4265 6.97212 27.4655 6.88944C27.5046 6.80672 27.5008 6.82036 27.48 6.78884C27.4592 6.75728 27.4153 6.73429 27.4368 6.69421C27.4584 6.65413 27.4799 6.53477 27.3866 6.60469C27.2933 6.67461 27.1096 6.8548 27.0245 6.88324C26.9395 6.91168 26.8746 6.94865 26.7598 6.98189C26.6449 7.01513 26.5737 7.05037 26.4514 7.14701C26.3291 7.24365 26.3376 7.09365 26.3589 7.07313C26.3589 7.07313 26.4057 7.19021 26.5301 7.03785C26.6545 6.88549 26.614 7.02832 26.9182 6.88548C27.2224 6.74264 27.1479 6.71949 27.267 6.63081C27.386 6.54213 27.4988 6.53872 27.4158 6.42048C27.3329 6.30224 27.3233 6.292 27.2159 6.42048C27.1085 6.54896 26.8119 6.75589 26.6343 6.76157C26.6343 6.76157 27.3202 6.33861 27.25 6.27725C27.1798 6.21585 27.1043 6.16129 27.0564 6.14649C27.0086 6.13169 26.9958 6.11465 26.8852 6.18513C26.7747 6.25561 26.7566 6.27268 26.7247 6.2772C26.6928 6.28172 26.6003 6.30789 26.4695 6.40453C26.3387 6.50117 26.2685 6.5398 26.1813 6.616C26.1813 6.616 26.2419 6.44092 26.512 6.32496C26.7821 6.209 26.9204 6.10213 26.8906 6.08281C26.8608 6.06349 26.7938 6.04757 26.7427 6.05893C26.6917 6.07029 26.7066 6.05325 26.5418 6.14649C26.377 6.23973 26.4472 6.21925 26.3142 6.26017C26.1813 6.30109 26.1271 6.34317 26.0612 6.38297C26.0612 6.38297 26.0881 6.33176 26.1776 6.28488C26.2236 6.26084 26.1273 6.23605 26.255 6.22865C26.2654 6.22805 26.2781 6.23236 26.2908 6.2272C26.4559 6.15956 26.6364 6.06689 26.6088 6.06009C26.5811 6.05325 26.4206 6.02941 26.2579 6.13625C26.0952 6.24313 26.1696 6.20673 26.1122 6.22381C26.0548 6.24085 25.9335 6.35 25.8931 6.3966C25.8527 6.44316 25.7964 6.47841 25.7964 6.47841Z" fill="white"/>
<path d="M21.7795 7.53719C21.7795 7.53719 21.8433 7.56447 21.8592 7.62843C21.8752 7.69239 21.9151 7.60031 21.9135 7.57131C21.9119 7.54231 21.8728 7.41443 21.8034 7.47411C21.734 7.53379 21.7688 7.53167 21.7795 7.53719Z" fill="#5A3719"/>
<path d="M21.6015 8.80111C21.6015 8.80111 21.7377 8.70963 21.8519 8.72095C21.8519 8.72095 21.8073 8.49071 21.887 8.52995C21.9668 8.56919 21.9444 8.55383 21.9604 8.55211C21.9604 8.55211 21.9652 8.40031 21.9444 8.34063C21.9444 8.34063 22.0258 8.36791 22.1087 8.36963C22.1087 8.36963 22.0305 8.15135 22.1167 8.00127C22.1167 8.00127 22.164 8.14451 22.2703 8.18035C22.2703 8.18035 22.2708 8.11895 22.2703 8.05415C22.2703 8.05415 22.3336 8.04391 22.383 8.08143C22.4325 8.11895 22.474 7.68579 22.3272 7.59027C22.3272 7.59027 22.2921 7.67211 22.155 7.71307C22.0178 7.75399 22.0189 7.79335 21.9625 7.94083C21.9061 8.08831 21.8567 8.08999 21.7418 8.19571C21.627 8.30143 21.5572 8.51631 21.5506 8.53507C21.5507 8.53507 21.6111 8.64079 21.6015 8.80111Z" fill="#7B3C20"/>
<path d="M26.1775 6.28482C26.2273 6.27234 26.1271 6.23598 26.2548 6.22858C26.2653 6.22798 26.278 6.2323 26.2907 6.22714C26.4558 6.1595 26.6363 6.06682 26.6086 6.06002C26.581 6.05318 26.4204 6.02934 26.2577 6.13618C26.0951 6.24306 26.1695 6.20666 26.1121 6.22374C26.0546 6.24078 25.9334 6.34994 25.893 6.39654C25.8526 6.44314 25.7963 6.47838 25.7963 6.47838C25.7963 6.47838 25.6623 6.53294 25.7867 6.65062C25.9111 6.7683 25.9717 6.87062 26.0626 6.90474C26.1535 6.93886 26.2476 6.98658 26.246 7.11622C26.2444 7.24582 26.2269 7.29698 26.1775 7.38566C26.128 7.47434 26.2046 7.51358 26.27 7.46242C26.3354 7.41126 26.3912 7.38398 26.4343 7.34814C26.4773 7.3123 26.5491 7.31746 26.4837 7.36518C26.4183 7.41294 26.3497 7.44194 26.4343 7.44534C26.5188 7.44874 27.0276 7.46238 27.1345 7.41294C27.2413 7.3635 27.3801 7.34814 27.3928 7.1503C27.3928 7.1503 27.3976 7.06246 27.4375 7.02582C27.4774 6.98914 27.5045 6.90474 27.4463 6.96186C27.3881 7.01898 27.3434 7.04798 27.3322 7.03094C27.321 7.0139 27.3179 7.00194 27.3601 6.97382C27.4024 6.9457 27.4263 6.9721 27.4654 6.88942C27.5045 6.8067 27.5007 6.82034 27.4799 6.78882C27.4692 6.77262 27.4524 6.7587 27.4416 6.74354C27.4416 6.74354 27.4109 6.70526 27.3753 6.73766C27.3397 6.77006 27.1834 6.86442 27.1207 6.87522C27.0579 6.88602 26.9931 6.9241 26.8803 7.00254C26.7676 7.08098 26.5805 7.24074 26.5507 7.09234C26.5507 7.09234 26.4691 7.13394 26.4513 7.1469C26.3256 7.23842 26.3365 7.10854 26.3587 7.07302C26.3587 7.07302 26.2928 7.17874 26.2955 7.08266C26.2981 6.98658 26.3407 7.00306 26.414 6.97238C26.4874 6.9417 26.6033 6.87346 26.5554 6.81662C26.5076 6.75978 26.4571 6.87306 26.4039 6.90766C26.3507 6.94226 26.2444 6.97294 26.2279 6.86266C26.2114 6.75238 26.212 6.67562 26.0679 6.6637C25.9238 6.65178 25.9291 6.5233 25.9685 6.46814C26.0078 6.41298 26.0424 6.31862 26.1775 6.28482Z" fill="#999999"/>
<path d="M26.6353 7.28216C26.6353 7.28216 26.8597 7.13436 27.066 7.065C27.2723 6.99564 27.1106 7.07408 27.0756 7.09C27.0405 7.10592 26.7193 7.25712 26.6438 7.30716C26.5683 7.3572 26.5839 7.3144 26.6353 7.28216ZM26.6874 7.34696C26.6874 7.34696 26.9394 7.2276 26.9862 7.2776C27.033 7.32764 26.9947 7.3026 26.9394 7.314C26.8841 7.32536 26.7321 7.36176 26.6917 7.3606C26.6513 7.35948 26.6874 7.34696 26.6874 7.34696ZM27.0915 7.22192C27.0915 7.22192 27.1394 7.2094 27.1447 7.23444C27.15 7.25944 27.1234 7.26288 27.0968 7.25832C27.0702 7.25376 27.0469 7.23212 27.0915 7.22192Z" fill="black"/>
<path d="M20.4354 10.3587C20.4354 10.3587 20.426 10.0426 20.5377 9.88232C20.6493 9.722 21.1916 8.9158 21.2745 8.69044C21.2745 8.69044 21.3447 8.76012 21.3479 8.88804C21.3479 8.88804 21.4388 8.66436 21.5106 8.58008C21.5106 8.58008 21.5744 8.67316 21.5632 8.85904C21.5632 8.85904 21.694 8.76012 21.8966 8.75844C21.8966 8.75844 21.8216 8.88464 21.8184 8.95796C21.8184 8.95796 22.0992 8.9136 22.2459 8.94772C22.2459 8.94772 21.8599 9.2564 21.9684 9.28368C22.0768 9.31096 22.1901 9.28196 22.1901 9.28196C22.1901 9.28196 22.0672 9.46104 21.8711 9.49684C21.8711 9.49684 22.1199 9.49172 22.1693 9.57188C22.1693 9.57188 21.9269 9.62476 21.7323 9.8362C21.7323 9.8362 21.7141 9.82428 21.7128 9.7458C21.7128 9.7458 21.7068 9.81572 21.6509 9.88224C21.5951 9.94876 21.4611 10.0903 21.4117 10.1619C21.3622 10.2336 21.2697 10.3751 21.1708 10.3683C21.1708 10.3683 21.1931 10.2591 21.1198 10.225C21.0464 10.1909 20.9619 10.2148 20.9029 10.3052C20.9029 10.3052 20.6413 10.3103 20.5584 10.3274C20.5584 10.3274 20.6174 10.1926 20.6716 10.196C20.7258 10.1994 20.9443 10.2421 20.9635 10.0289C20.9826 9.81576 20.8231 9.87204 20.8837 9.74584C20.9443 9.61964 20.93 9.62476 20.9316 9.6128C20.9316 9.6128 20.8821 9.65204 20.8534 9.7646C20.8247 9.87716 20.804 9.96412 20.7003 10.0767C20.5966 10.1892 20.5537 10.2574 20.525 10.3358C20.525 10.3359 20.4777 10.3453 20.4354 10.3587Z" fill="white"/>
<path d="M20.687 10.1676C20.687 10.1676 20.6955 10.1244 20.772 10.1062C20.8486 10.088 20.8518 10.0358 20.8422 10.013C20.8326 9.99023 20.7869 9.99027 20.8613 9.86975C20.8613 9.86975 20.8879 9.87999 20.906 9.90955C20.9241 9.93911 21.0081 10.1961 20.687 10.1676Z" fill="white"/>
<path d="M20.5032 9.9444C20.5072 10.155 20.7004 10.0768 20.7004 10.0768C20.6315 10.1515 20.5894 10.2066 20.5605 10.2582C20.5733 10.1559 20.4516 10.1303 20.4516 10.1303C20.4616 10.0678 20.4776 10.0016 20.5032 9.9444ZM21.2136 8.81888C21.2415 8.7666 21.2627 8.72264 21.2746 8.69044C21.2746 8.69044 21.3447 8.76012 21.3479 8.88804C21.3479 8.88804 21.4389 8.66436 21.5106 8.58008C21.5106 8.58008 21.5744 8.67316 21.5633 8.85904C21.5633 8.85904 21.694 8.76012 21.8966 8.75844C21.8966 8.75844 21.8216 8.88464 21.8184 8.95796C21.8184 8.95796 22.0992 8.9136 22.2459 8.94772C22.2459 8.94772 21.8599 9.2564 21.9684 9.28368C22.0768 9.31096 22.1901 9.28196 22.1901 9.28196C22.1901 9.28196 22.0673 9.46104 21.8711 9.49684C21.8711 9.49684 22.1199 9.49172 22.1693 9.57188C22.1693 9.57188 22.0985 9.58732 22.0027 9.63492C22.0027 9.63492 21.9311 9.53892 21.7238 9.55256C21.7238 9.55256 21.8851 9.42364 22.013 9.382C22.013 9.382 21.9566 9.27628 21.8684 9.37292C21.8684 9.37292 21.6929 9.20012 21.8375 9.05344C21.8375 9.05344 21.7355 9.02276 21.6685 9.09096C21.6685 9.09096 21.6717 8.97272 21.7461 8.91928C21.7461 8.91928 21.5494 8.8738 21.5005 9.08072C21.5005 9.08072 21.4633 8.99544 21.4803 8.8988C21.4803 8.8988 21.3612 8.99664 21.3069 9.10748C21.307 9.10752 21.2891 8.89732 21.2136 8.81888ZM20.8323 10.1555C20.797 10.1679 20.7497 10.1732 20.6871 10.1677C20.6871 10.1677 20.6925 10.1404 20.733 10.1201C20.733 10.1201 20.7446 10.1547 20.8323 10.1555Z" fill="#999999"/>
<path d="M21.19 9.35881C21.19 9.35881 21.2794 9.45941 21.3112 9.52081C21.3112 9.52081 21.3926 9.43893 21.4229 9.37245C21.4229 9.37245 21.4867 9.43213 21.509 9.52081C21.509 9.52081 21.5537 9.47645 21.5632 9.41509C21.5632 9.41509 21.6759 9.44921 21.7128 9.50205C21.7128 9.50205 21.7301 9.34685 21.7128 9.24965C21.7128 9.24965 21.7913 9.25817 21.8392 9.28717C21.8392 9.28717 21.7947 9.18485 22.0219 9.05353C22.0219 9.05353 21.8501 9.10621 21.7849 9.21385C21.7849 9.21385 21.7116 9.21897 21.6797 9.18657C21.6797 9.18657 21.6845 9.34345 21.6813 9.41849C21.6813 9.41849 21.637 9.39289 21.5507 9.36393C21.5507 9.36393 21.5298 9.41509 21.5154 9.42701C21.5154 9.42701 21.4612 9.36561 21.4372 9.28717C21.4372 9.28717 21.3543 9.39481 21.3224 9.44065C21.3224 9.44065 21.2443 9.36221 21.19 9.35881Z" fill="black"/>
<path d="M20.6763 10.9552C20.6763 10.9552 20.7114 10.9791 20.7943 10.8836C20.8773 10.7881 21.1117 10.5749 21.134 10.4044C21.1564 10.2338 21.0591 10.2236 20.9825 10.273C20.906 10.3225 20.9378 10.418 20.941 10.4487C20.9442 10.4794 20.9458 10.5988 20.8214 10.7642C20.697 10.9297 20.6763 10.9552 20.6763 10.9552Z" fill="#FFC221"/>
<path d="M20.6493 11.0096C20.6493 11.0096 20.4611 10.8971 20.6302 10.776C20.7993 10.6549 20.8742 10.6225 20.8934 10.5219C20.9125 10.4212 20.9013 10.4383 20.8391 10.4809C20.7769 10.5236 20.5377 10.6771 20.501 10.5338C20.501 10.5338 20.5999 10.5884 20.7227 10.5031C20.8455 10.4179 20.946 10.3923 20.8679 10.3565C20.7897 10.3207 20.5074 10.365 20.4611 10.3837C20.4149 10.4025 20.426 10.3991 20.4181 10.4656C20.4101 10.5321 20.3574 10.6719 20.3383 10.7129C20.3192 10.7538 20.2729 10.9243 20.3591 10.9994C20.4452 11.0744 20.5817 11.0693 20.6493 11.0096Z" fill="#FFC221"/>
<path d="M20.576 10.4229C20.576 10.4229 20.5329 10.4314 20.5409 10.4553C20.5489 10.4792 20.5601 10.4758 20.576 10.4775C20.5919 10.4792 20.6159 10.4656 20.619 10.4502C20.6222 10.4349 20.592 10.4178 20.576 10.4229Z" fill="black"/>
<path d="M20.6382 10.9499C20.6382 10.9499 20.5489 10.8885 20.6493 10.8101C20.7498 10.7316 20.8583 10.6566 20.8726 10.6242C20.8726 10.6242 20.8248 10.7214 20.6382 10.9499Z" fill="white"/>
</g>
<defs>
<clipPath id="clip0_8213_1646">
<rect width="28" height="20" fill="white"/>
</clipPath>
</defs>
</svg>
